<svg xmlns="http://www.w3.org/2000/svg" xmlns:xlink="http://www.w3.org/1999/xlink" viewBox="0 0 169.45 173.12"><defs><style>.cls-1{isolation:isolate;}.cls-2{fill:url(#linear-gradient);}.cls-158,.cls-3,.cls-59{opacity:0.3;}.cls-10,.cls-102,.cls-11,.cls-115,.cls-116,.cls-117,.cls-118,.cls-119,.cls-12,.cls-120,.cls-121,.cls-122,.cls-123,.cls-124,.cls-125,.cls-126,.cls-127,.cls-128,.cls-129,.cls-13,.cls-130,.cls-131,.cls-132,.cls-133,.cls-134,.cls-135,.cls-136,.cls-137,.cls-138,.cls-139,.cls-14,.cls-140,.cls-141,.cls-142,.cls-143,.cls-144,.cls-145,.cls-146,.cls-147,.cls-148,.cls-149,.cls-15,.cls-150,.cls-151,.cls-152,.cls-153,.cls-154,.cls-16,.cls-17,.cls-18,.cls-19,.cls-20,.cls-21,.cls-22,.cls-23,.cls-24,.cls-25,.cls-26,.cls-27,.cls-28,.cls-29,.cls-30,.cls-31,.cls-32,.cls-33,.cls-34,.cls-35,.cls-36,.cls-37,.cls-38,.cls-39,.cls-4,.cls-40,.cls-41,.cls-42,.cls-43,.cls-44,.cls-45,.cls-46,.cls-47,.cls-48,.cls-49,.cls-5,.cls-50,.cls-51,.cls-52,.cls-53,.cls-54,.cls-55,.cls-6,.cls-64,.cls-65,.cls-66,.cls-67,.cls-68,.cls-69,.cls-7,.cls-70,.cls-71,.cls-72,.cls-73,.cls-74,.cls-75,.cls-76,.cls-77,.cls-78,.cls-79,.cls-8,.cls-80,.cls-81,.cls-82,.cls-83,.cls-84,.cls-85,.cls-86,.cls-87,.cls-88,.cls-89,.cls-9,.cls-90,.cls-91,.cls-92,.cls-93{fill:#3c5185;}.cls-4{opacity:0;}.cls-5{opacity:0.02;}.cls-6{opacity:0.04;}.cls-7{opacity:0.06;}.cls-8{opacity:0.08;}.cls-9{opacity:0.1;}.cls-10{opacity:0.12;}.cls-11{opacity:0.14;}.cls-12{opacity:0.16;}.cls-13{opacity:0.18;}.cls-14{opacity:0.2;}.cls-15{opacity:0.22;}.cls-16{opacity:0.24;}.cls-17{opacity:0.25;}.cls-18{opacity:0.27;}.cls-19{opacity:0.29;}.cls-20{opacity:0.31;}.cls-21{opacity:0.33;}.cls-22{opacity:0.35;}.cls-23{opacity:0.37;}.cls-24{opacity:0.39;}.cls-25{opacity:0.41;}.cls-26{opacity:0.43;}.cls-27{opacity:0.45;}.cls-28{opacity:0.47;}.cls-29{opacity:0.49;}.cls-30{opacity:0.51;}.cls-31{opacity:0.53;}.cls-32{opacity:0.55;}.cls-33{opacity:0.57;}.cls-34{opacity:0.59;}.cls-35{opacity:0.61;}.cls-36{opacity:0.63;}.cls-37{opacity:0.65;}.cls-38{opacity:0.67;}.cls-39{opacity:0.69;}.cls-40{opacity:0.71;}.cls-41{opacity:0.73;}.cls-42{opacity:0.75;}.cls-43{opacity:0.76;}.cls-44{opacity:0.78;}.cls-45{opacity:0.8;}.cls-46{opacity:0.82;}.cls-47{opacity:0.84;}.cls-48{opacity:0.86;}.cls-49{opacity:0.88;}.cls-50{opacity:0.9;}.cls-51{opacity:0.92;}.cls-52{opacity:0.94;}.cls-53{opacity:0.96;}.cls-54{opacity:0.98;}.cls-56{fill:url(#linear-gradient-2);}.cls-57{fill:#f6f9fc;}.cls-58{fill:#d1e1f2;}.cls-159,.cls-163,.cls-59,.cls-98{mix-blend-mode:multiply;}.cls-60{fill:url(#linear-gradient-3);}.cls-61{fill:url(#linear-gradient-4);}.cls-62,.cls-63{fill:#fff;}.cls-63{opacity:0.1;}.cls-64{opacity:0.03;}.cls-65{opacity:0.06;}.cls-66{opacity:0.1;}.cls-67{opacity:0.13;}.cls-68{opacity:0.16;}.cls-69{opacity:0.19;}.cls-70{opacity:0.23;}.cls-71{opacity:0.26;}.cls-72{opacity:0.29;}.cls-73{opacity:0.32;}.cls-74{opacity:0.35;}.cls-75{opacity:0.39;}.cls-76{opacity:0.42;}.cls-77{opacity:0.45;}.cls-78{opacity:0.48;}.cls-79{opacity:0.52;}.cls-80{opacity:0.55;}.cls-81{opacity:0.58;}.cls-82{opacity:0.61;}.cls-83{opacity:0.65;}.cls-84{opacity:0.68;}.cls-85{opacity:0.71;}.cls-86{opacity:0.74;}.cls-87{opacity:0.77;}.cls-88{opacity:0.81;}.cls-89{opacity:0.84;}.cls-90{opacity:0.87;}.cls-91{opacity:0.9;}.cls-92{opacity:0.94;}.cls-93{opacity:0.97;}.cls-94{fill:url(#linear-gradient-5);}.cls-95{fill:#4a65a3;}.cls-96{fill:url(#linear-gradient-6);}.cls-97{fill:#a5cbef;}.cls-98{opacity:0.2;}.cls-99{fill:url(#linear-gradient-7);}.cls-100{fill:url(#linear-gradient-8);}.cls-101{fill:url(#linear-gradient-9);}.cls-102{opacity:0.11;}.cls-103{fill:#ff9800;}.cls-104{fill:url(#linear-gradient-10);}.cls-105{fill:#e6e7e8;}.cls-106{fill:#f1f2f2;}.cls-107{fill:#fafafa;}.cls-108,.cls-158{fill:#231f20;}.cls-108{opacity:0.08;}.cls-109{fill:url(#linear-gradient-11);}.cls-110{fill:url(#linear-gradient-12);}.cls-111{fill:url(#linear-gradient-13);}.cls-112{fill:url(#linear-gradient-14);}.cls-113{fill:#f2b1b5;}.cls-114{fill:#384c7a;}.cls-115{opacity:0.02;}.cls-116{opacity:0.05;}.cls-117{opacity:0.07;}.cls-118{opacity:0.1;}.cls-119{opacity:0.12;}.cls-120{opacity:0.15;}.cls-121{opacity:0.17;}.cls-122{opacity:0.2;}.cls-123{opacity:0.22;}.cls-124{opacity:0.24;}.cls-125{opacity:0.27;}.cls-126{opacity:0.29;}.cls-127{opacity:0.32;}.cls-128{opacity:0.34;}.cls-129{opacity:0.37;}.cls-130{opacity:0.39;}.cls-131{opacity:0.41;}.cls-132{opacity:0.44;}.cls-133{opacity:0.46;}.cls-134{opacity:0.49;}.cls-135{opacity:0.51;}.cls-136{opacity:0.54;}.cls-137{opacity:0.56;}.cls-138{opacity:0.59;}.cls-139{opacity:0.61;}.cls-140{opacity:0.63;}.cls-141{opacity:0.66;}.cls-142{opacity:0.68;}.cls-143{opacity:0.71;}.cls-144{opacity:0.73;}.cls-145{opacity:0.76;}.cls-146{opacity:0.78;}.cls-147{opacity:0.8;}.cls-148{opacity:0.83;}.cls-149{opacity:0.85;}.cls-150{opacity:0.88;}.cls-151{opacity:0.9;}.cls-152{opacity:0.93;}.cls-153{opacity:0.95;}.cls-154{opacity:0.98;}.cls-155{fill:#b7d5f2;}.cls-156{fill:#c9e0f5;}.cls-157{fill:#dbeaf9;}.cls-159,.cls-163{opacity:0.6;}.cls-159{fill:url(#radial-gradient);}.cls-160{fill:#ffc107;}.cls-161{fill:#ffad33;}.cls-162{fill:#ffcd39;}.cls-163{fill:url(#radial-gradient-2);}.cls-164{fill:url(#linear-gradient-15);}</style><linearGradient id="linear-gradient" x1="105.13" y1="173.63" x2="55.97" y2="13.33" gradientUnits="userSpaceOnUse"><stop offset="0.11" stop-color="#fff"/><stop offset="1" stop-color="#e1ebf7"/></linearGradient><linearGradient id="linear-gradient-2" x1="13" y1="69.66" x2="74.13" y2="69.66" gradientUnits="userSpaceOnUse"><stop offset="0" stop-color="#a5cbef"/><stop offset="0.44" stop-color="#cee3f6"/><stop offset="1" stop-color="#fff"/></linearGradient><linearGradient id="linear-gradient-3" x1="127.84" y1="117.21" x2="164.87" y2="117.21" gradientUnits="userSpaceOnUse"><stop offset="0" stop-color="#5d7dbe"/><stop offset="1" stop-color="#3c5185"/></linearGradient><linearGradient id="linear-gradient-4" x1="127.84" y1="110.65" x2="164.87" y2="110.65" gradientUnits="userSpaceOnUse"><stop offset="0" stop-color="#3c5185"/><stop offset="1" stop-color="#5d7dbe"/></linearGradient><linearGradient id="linear-gradient-5" x1="-88.83" y1="75.33" x2="-27.24" y2="75.33" gradientTransform="matrix(-1, 0, 0, 1, 72.99, 0)" xlink:href="#linear-gradient-2"/><linearGradient id="linear-gradient-6" x1="-76.9" y1="75.96" x2="-70.23" y2="75.96" gradientTransform="matrix(-1, 0, 0, 1, 72.99, 0)" gradientUnits="userSpaceOnUse"><stop offset="0.15" stop-color="#ff9800"/><stop offset="1" stop-color="#ffc107"/></linearGradient><linearGradient id="linear-gradient-7" x1="116.12" y1="137.06" x2="73.89" y2="-1.99" gradientUnits="userSpaceOnUse"><stop offset="0.04" stop-color="#a5cbef"/><stop offset="0.67" stop-color="#eaf3fb"/><stop offset="1" stop-color="#a5cbef"/></linearGradient><linearGradient id="linear-gradient-8" x1="83.7" y1="54" x2="102.87" y2="54" xlink:href="#linear-gradient-4"/><linearGradient id="linear-gradient-9" x1="83.7" y1="107.5" x2="102.87" y2="107.5" xlink:href="#linear-gradient-4"/><linearGradient id="linear-gradient-10" x1="75.61" y1="80.23" x2="94.78" y2="80.23" gradientTransform="translate(51.53 -31.85) rotate(30)" xlink:href="#linear-gradient-6"/><linearGradient id="linear-gradient-11" x1="103.98" y1="134.83" x2="128.81" y2="134.83" gradientTransform="matrix(1, 0, 0, 1, 0, 0)" xlink:href="#linear-gradient-6"/><linearGradient id="linear-gradient-12" x1="122.85" y1="151.9" x2="105.24" y2="120.02" gradientTransform="matrix(1, 0, 0, 1, 0, 0)" xlink:href="#linear-gradient-6"/><linearGradient id="linear-gradient-13" x1="56.56" y1="134.78" x2="63.65" y2="134.78" gradientUnits="userSpaceOnUse"><stop offset="0" stop-color="#fff"/><stop offset="0.18" stop-color="#f8fcff"/><stop offset="0.45" stop-color="#e4f3fe"/><stop offset="0.78" stop-color="#c3e5fc"/><stop offset="1" stop-color="#a8d9fb"/></linearGradient><linearGradient id="linear-gradient-14" x1="57.58" y1="138.43" x2="70.87" y2="138.43" xlink:href="#linear-gradient-13"/><radialGradient id="radial-gradient" cx="28.19" cy="7754.11" r="12.31" gradientTransform="translate(0 -5237.17) scale(1 0.69)" gradientUnits="userSpaceOnUse"><stop offset="0" stop-color="#3c5185"/><stop offset="0.18" stop-color="#6f7ea5"/><stop offset="0.38" stop-color="#a2acc5"/><stop offset="0.57" stop-color="#cad0de"/><stop offset="0.74" stop-color="#e7eaf0"/><stop offset="0.89" stop-color="#f9f9fb"/><stop offset="1" stop-color="#fff"/></radialGradient><radialGradient id="radial-gradient-2" cx="44.82" cy="7698.07" r="16.04" xlink:href="#radial-gradient"/><linearGradient id="linear-gradient-15" x1="30.62" y1="49.6" x2="59.48" y2="49.6" gradientUnits="userSpaceOnUse"><stop offset="0" stop-color="#4a65a3"/><stop offset="0.44" stop-color="#5471b1"/><stop offset="1" stop-color="#5d7dbe"/></linearGradient></defs><g class="cls-1"><g id="Layer_2" data-name="Layer 2"><g id="Wallet"><path class="cls-2" d="M166.21,100.77c0,42.44-41.91,72.35-84.36,72.35S0,143.21,0,100.77,25.41,12.42,67.85,12.42,166.21,58.32,166.21,100.77Z"/><g class="cls-3"><path class="cls-4" d="M74.27,77.39c1.37-.78,1.37-2.07,0-2.86L36.69,52.85a5.49,5.49,0,0,0-5,0L11.54,64.5c-1.37.79-1.37,2.08,0,2.87L49.12,89.05a5.49,5.49,0,0,0,5,0Z"/><path class="cls-5" d="M74.19,77.37c1.36-.78,1.36-2.07,0-2.86L36.74,52.91a5.47,5.47,0,0,0-5,0L11.67,64.52c-1.36.79-1.36,2.08,0,2.86L49.12,89a5.53,5.53,0,0,0,5,0Z"/><path class="cls-6" d="M74.1,77.35c1.36-.78,1.36-2.06,0-2.85L36.79,53a5.51,5.51,0,0,0-4.94,0l-20,11.58c-1.36.78-1.36,2.06,0,2.84L49.12,88.92a5.44,5.44,0,0,0,4.94,0Z"/><path class="cls-7" d="M74,77.33c1.35-.78,1.35-2.06,0-2.84L36.83,53a5.44,5.44,0,0,0-4.91,0l-20,11.54c-1.35.78-1.35,2.06,0,2.84L49.13,88.86a5.44,5.44,0,0,0,4.91,0Z"/><path class="cls-8" d="M73.94,77.31c1.34-.78,1.34-2,0-2.83L36.88,53.1a5.42,5.42,0,0,0-4.9,0L12.07,64.59c-1.35.78-1.35,2,0,2.83L49.13,88.8a5.42,5.42,0,0,0,4.9,0Z"/><path class="cls-9" d="M73.85,77.28c1.35-.77,1.35-2,0-2.81L36.93,53.16a5.4,5.4,0,0,0-4.89,0L12.2,64.61c-1.34.78-1.34,2,0,2.82L49.13,88.74a5.46,5.46,0,0,0,4.89,0Z"/><path class="cls-10" d="M73.77,77.26c1.34-.77,1.34-2,0-2.81L37,53.22a5.4,5.4,0,0,0-4.86,0L12.34,64.63c-1.34.78-1.34,2,0,2.81l36.8,21.24a5.4,5.4,0,0,0,4.86,0Z"/><path class="cls-11" d="M73.69,77.24c1.33-.77,1.33-2,0-2.8L37,53.28a5.38,5.38,0,0,0-4.85,0L12.47,64.66c-1.33.77-1.33,2,0,2.79L49.14,88.61a5.38,5.38,0,0,0,4.85,0Z"/><path class="cls-12" d="M73.61,77.22c1.32-.77,1.32-2,0-2.79L37.06,53.34a5.4,5.4,0,0,0-4.83,0L12.6,64.68c-1.33.77-1.33,2,0,2.79L49.14,88.55a5.34,5.34,0,0,0,4.83,0Z"/><path class="cls-13" d="M73.52,77.19c1.33-.76,1.33-2,0-2.77l-36.41-21a5.3,5.3,0,0,0-4.81,0L12.73,64.7a1.47,1.47,0,0,0,0,2.78l36.42,21a5.36,5.36,0,0,0,4.81,0Z"/><path class="cls-14" d="M73.44,77.17c1.32-.76,1.32-2,0-2.77L37.16,53.47a5.34,5.34,0,0,0-4.8,0L12.87,64.72c-1.32.76-1.32,2,0,2.77L49.15,88.43a5.34,5.34,0,0,0,4.8,0Z"/><path class="cls-15" d="M73.36,77.15c1.31-.76,1.31-2,0-2.76L37.2,53.53a5.3,5.3,0,0,0-4.78,0L13,64.74c-1.32.76-1.32,2,0,2.76L49.15,88.36a5.3,5.3,0,0,0,4.78,0Z"/><path class="cls-16" d="M73.27,77.13c1.31-.76,1.31-2,0-2.75l-36-20.79a5.34,5.34,0,0,0-4.77,0L13.13,64.77c-1.31.75-1.31,2,0,2.75l36,20.78a5.25,5.25,0,0,0,4.76,0Z"/><path class="cls-17" d="M73.19,77.11c1.31-.76,1.31-2,0-2.74L37.29,53.65a5.24,5.24,0,0,0-4.74,0L13.26,64.79a1.45,1.45,0,0,0,0,2.74l35.9,20.71a5.3,5.3,0,0,0,4.75,0Z"/><path class="cls-18" d="M73.11,77.08c1.3-.75,1.3-2,0-2.73L37.34,53.72a5.25,5.25,0,0,0-4.73,0L13.4,64.81c-1.3.75-1.3,2,0,2.73L49.16,88.18a5.25,5.25,0,0,0,4.73,0Z"/><path class="cls-19" d="M73,77.06c1.3-.75,1.3-2,0-2.72L37.39,53.78a5.23,5.23,0,0,0-4.72,0l-19.14,11c-1.3.75-1.3,2,0,2.72L49.17,88.12a5.27,5.27,0,0,0,4.71,0Z"/><path class="cls-20" d="M72.94,77c1.29-.75,1.29-2,0-2.71L37.43,53.84a5.23,5.23,0,0,0-4.69,0l-19.08,11c-1.29.74-1.29,2,0,2.71L49.17,88.05a5.19,5.19,0,0,0,4.7,0Z"/><path class="cls-21" d="M72.86,77c1.29-.74,1.28-2,0-2.7L37.48,53.9a5.21,5.21,0,0,0-4.68,0l-19,11a1.43,1.43,0,0,0,0,2.7L49.17,88a5.21,5.21,0,0,0,4.68,0Z"/><path class="cls-22" d="M72.78,77a1.42,1.42,0,0,0,0-2.69L37.52,54a5.17,5.17,0,0,0-4.66,0L13.93,64.9c-1.29.74-1.29,1.95,0,2.69L49.18,87.93a5.17,5.17,0,0,0,4.66,0Z"/><path class="cls-23" d="M72.69,77c1.28-.73,1.28-1.94,0-2.68L37.57,54a5.13,5.13,0,0,0-4.64,0L14.06,64.92c-1.28.74-1.28,2,0,2.68L49.18,87.87a5.19,5.19,0,0,0,4.64,0Z"/><path class="cls-24" d="M72.61,77a1.41,1.41,0,0,0,0-2.67l-35-20.19a5.17,5.17,0,0,0-4.63,0L14.19,64.94c-1.27.74-1.27,1.94,0,2.67l35,20.2a5.14,5.14,0,0,0,4.63,0Z"/><path class="cls-25" d="M72.53,76.93a1.41,1.41,0,0,0,0-2.66L37.66,54.15a5.13,5.13,0,0,0-4.61,0L14.32,65a1.41,1.41,0,0,0,0,2.66L49.19,87.74a5.13,5.13,0,0,0,4.61,0Z"/><path class="cls-26" d="M72.44,76.91c1.27-.73,1.27-1.93,0-2.65L37.71,54.21a5.12,5.12,0,0,0-4.59,0L14.46,65c-1.27.73-1.27,1.92,0,2.65l34.73,20a5.08,5.08,0,0,0,4.59,0Z"/><path class="cls-27" d="M72.36,76.88c1.26-.72,1.26-1.91,0-2.64l-34.6-20a5.06,5.06,0,0,0-4.58,0L14.59,65c-1.26.73-1.26,1.92,0,2.64l34.6,20a5.13,5.13,0,0,0,4.58,0Z"/><path class="cls-28" d="M72.28,76.86a1.39,1.39,0,0,0,0-2.63L37.8,54.34a5.08,5.08,0,0,0-4.56,0L14.72,65a1.39,1.39,0,0,0,0,2.63L49.2,87.56a5.08,5.08,0,0,0,4.56,0Z"/><path class="cls-29" d="M72.19,76.84a1.38,1.38,0,0,0,0-2.62L37.85,54.4a5,5,0,0,0-4.54,0L14.85,65.05a1.39,1.39,0,0,0,0,2.63L49.2,87.49a5,5,0,0,0,4.54,0Z"/><path class="cls-30" d="M72.11,76.82a1.38,1.38,0,0,0,0-2.61L37.89,54.46a5.06,5.06,0,0,0-4.52,0L15,65.08a1.38,1.38,0,0,0,0,2.61L49.2,87.43a5,5,0,0,0,4.53,0Z"/><path class="cls-31" d="M72,76.8a1.38,1.38,0,0,0,0-2.61L37.94,54.53a5,5,0,0,0-4.51,0L15.12,65.1a1.37,1.37,0,0,0,0,2.6L49.21,87.37a5,5,0,0,0,4.51,0Z"/><path class="cls-32" d="M72,76.77a1.37,1.37,0,0,0,0-2.59L38,54.59a5,5,0,0,0-4.49,0L15.25,65.12a1.37,1.37,0,0,0,0,2.59l34,19.6a5,5,0,0,0,4.49,0Z"/><path class="cls-33" d="M71.86,76.75a1.36,1.36,0,0,0,0-2.58L38,54.65a5,5,0,0,0-4.47,0L15.38,65.14a1.37,1.37,0,0,0,0,2.59L49.22,87.25a4.93,4.93,0,0,0,4.47,0Z"/><path class="cls-34" d="M71.78,76.73a1.36,1.36,0,0,0,0-2.57L38.08,54.71a5,5,0,0,0-4.46,0L15.52,65.17a1.36,1.36,0,0,0,0,2.57l33.7,19.44a4.94,4.94,0,0,0,4.46,0Z"/><path class="cls-35" d="M71.7,76.71a1.35,1.35,0,0,0,0-2.56L38.12,54.77a4.94,4.94,0,0,0-4.43,0l-18,10.42a1.35,1.35,0,0,0,0,2.56L49.22,87.12a4.89,4.89,0,0,0,4.44,0Z"/><path class="cls-36" d="M71.61,76.69a1.35,1.35,0,0,0,0-2.56L38.17,54.84a4.85,4.85,0,0,0-4.42,0l-18,10.37a1.35,1.35,0,0,0,0,2.55l33.45,19.3a4.91,4.91,0,0,0,4.42,0Z"/><path class="cls-37" d="M71.53,76.66a1.34,1.34,0,0,0,0-2.54L38.22,54.9a4.89,4.89,0,0,0-4.41,0L15.91,65.23a1.34,1.34,0,0,0,0,2.54L49.23,87a4.87,4.87,0,0,0,4.4,0Z"/><path class="cls-38" d="M71.45,76.64a1.34,1.34,0,0,0,0-2.53L38.26,55a4.85,4.85,0,0,0-4.39,0L16.05,65.25a1.34,1.34,0,0,0,0,2.54L49.23,86.93a4.85,4.85,0,0,0,4.39,0Z"/><path class="cls-39" d="M71.37,76.62a1.33,1.33,0,0,0,0-2.52L38.31,55a4.87,4.87,0,0,0-4.37,0L16.18,65.28a1.33,1.33,0,0,0,0,2.52L49.24,86.87a4.81,4.81,0,0,0,4.37,0Z"/><path class="cls-40" d="M71.28,76.6a1.33,1.33,0,0,0,0-2.52l-32.92-19a4.79,4.79,0,0,0-4.36,0L16.31,65.3a1.33,1.33,0,0,0,0,2.51l32.93,19a4.83,4.83,0,0,0,4.35,0Z"/><path class="cls-41" d="M71.2,76.57a1.32,1.32,0,0,0,0-2.5L38.4,55.15a4.81,4.81,0,0,0-4.34,0L16.44,65.32a1.32,1.32,0,0,0,0,2.5L49.24,86.75a4.81,4.81,0,0,0,4.34,0Z"/><path class="cls-42" d="M71.12,76.55a1.32,1.32,0,0,0,0-2.49L38.45,55.21a4.77,4.77,0,0,0-4.32,0L16.58,65.34a1.32,1.32,0,0,0,0,2.5L49.25,86.69a4.83,4.83,0,0,0,4.32,0Z"/><path class="cls-43" d="M71,76.53a1.31,1.31,0,0,0,0-2.48L38.49,55.27a4.79,4.79,0,0,0-4.3,0L16.71,65.37a1.31,1.31,0,0,0,0,2.48L49.25,86.62a4.72,4.72,0,0,0,4.3,0Z"/><path class="cls-44" d="M71,76.51A1.31,1.31,0,0,0,71,74L38.54,55.33a4.77,4.77,0,0,0-4.29,0L16.84,65.39a1.3,1.3,0,0,0,0,2.47l32.41,18.7a4.77,4.77,0,0,0,4.29,0Z"/><path class="cls-45" d="M70.87,76.49a1.31,1.31,0,0,0,0-2.47L38.59,55.4a4.72,4.72,0,0,0-4.27,0L17,65.41a1.3,1.3,0,0,0,0,2.46L49.26,86.5a4.72,4.72,0,0,0,4.27,0Z"/><path class="cls-46" d="M70.78,76.46a1.29,1.29,0,0,0,0-2.45L38.63,55.46a4.68,4.68,0,0,0-4.25,0l-17.27,10a1.3,1.3,0,0,0,0,2.46L49.26,86.44a4.74,4.74,0,0,0,4.25,0Z"/><path class="cls-47" d="M70.7,76.44a1.29,1.29,0,0,0,0-2.44l-32-18.48a4.72,4.72,0,0,0-4.24,0l-17.2,9.93a1.3,1.3,0,0,0,0,2.45l32,18.47a4.66,4.66,0,0,0,4.24,0Z"/><path class="cls-48" d="M70.62,76.42a1.28,1.28,0,0,0,0-2.43L38.72,55.58a4.66,4.66,0,0,0-4.21,0l-17.14,9.9a1.28,1.28,0,0,0,0,2.43l31.9,18.4a4.66,4.66,0,0,0,4.21,0Z"/><path class="cls-49" d="M70.54,76.4a1.29,1.29,0,0,0,0-2.43L38.77,55.64a4.67,4.67,0,0,0-4.2,0L17.51,65.5a1.28,1.28,0,0,0,0,2.42L49.27,86.25a4.64,4.64,0,0,0,4.2,0Z"/><path class="cls-50" d="M70.45,76.38a1.28,1.28,0,0,0,0-2.42L38.82,55.71a4.62,4.62,0,0,0-4.19,0l-17,9.81a1.27,1.27,0,0,0,0,2.41L49.27,86.19a4.68,4.68,0,0,0,4.19,0Z"/><path class="cls-51" d="M70.37,76.35a1.27,1.27,0,0,0,0-2.4L38.86,55.77a4.62,4.62,0,0,0-4.16,0L17.77,65.54a1.27,1.27,0,0,0,0,2.41L49.28,86.13a4.62,4.62,0,0,0,4.16,0Z"/><path class="cls-52" d="M70.29,76.33a1.26,1.26,0,0,0,0-2.39L38.91,55.83a4.6,4.6,0,0,0-4.15,0L17.9,65.56a1.27,1.27,0,0,0,0,2.4l31.38,18.1a4.6,4.6,0,0,0,4.15,0Z"/><path class="cls-53" d="M70.2,76.31a1.26,1.26,0,0,0,0-2.39L39,55.89a4.62,4.62,0,0,0-4.13,0L18,65.59A1.26,1.26,0,0,0,18,68L49.28,86a4.58,4.58,0,0,0,4.14,0Z"/><path class="cls-54" d="M70.12,76.29a1.26,1.26,0,0,0,0-2.38L39,56a4.51,4.51,0,0,0-4.11,0L18.17,65.61a1.25,1.25,0,0,0,0,2.37l31.12,18a4.58,4.58,0,0,0,4.11,0Z"/><path class="cls-55" d="M70,76.26a1.25,1.25,0,0,0,0-2.36L39.05,56A4.55,4.55,0,0,0,35,56L18.3,65.63a1.25,1.25,0,0,0,0,2.37l31,17.88a4.55,4.55,0,0,0,4.1,0Z"/></g><path class="cls-56" d="M74.13,74.29V73.05s-.31.36-1,0L37.7,52.58a5.15,5.15,0,0,0-4.68,0L14,63.58c-.55.31-.89-.48-1-.07v1.33a1.53,1.53,0,0,0,.76,1.32L49.43,86.74a5.17,5.17,0,0,0,4.69,0L73.39,75.58A1.49,1.49,0,0,0,74.13,74.29Z"/><path class="cls-57" d="M73.17,74.39c1.28-.74,1.28-2,0-2.71L37.7,51.22a5.21,5.21,0,0,0-4.68,0L14,62.22c-1.29.75-1.29,2,0,2.71L49.43,85.39a5.23,5.23,0,0,0,4.69,0Z"/><path class="cls-55" d="M64,74.83c2.57-1.49,2.57-3.92,0-5.41a10.44,10.44,0,0,0-9.37,0c-2.57,1.49-2.57,3.92,0,5.41A10.44,10.44,0,0,0,64,74.83Z"/><polygon class="cls-58" points="55.23 66.92 52.89 68.31 31.53 55.98 33.9 54.61 55.23 66.92"/><polygon class="cls-58" points="50.56 69.7 48.22 71.08 26.86 58.75 29.23 57.38 50.56 69.7"/><polygon class="cls-58" points="57.47 79.01 55.13 80.39 22.19 61.52 24.56 60.16 57.47 79.01"/><polygon class="cls-58" points="52.8 81.78 50.46 83.17 17.52 64.3 19.89 62.93 52.8 81.78"/><g class="cls-59"><path class="cls-4" d="M128.5,111.07,142,100.59a2.59,2.59,0,0,1,2-.51L164,103.34l5.32,10.33a1.56,1.56,0,0,1-.76,2.15L147.62,125a18.84,18.84,0,0,1-8.31,1.59l-12.14-.46a2.55,2.55,0,0,1-2.45-2.55v-4.83A9.73,9.73,0,0,1,128.5,111.07Z"/><path class="cls-5" d="M128.56,111.07,142,100.64a2.56,2.56,0,0,1,2-.5l19.84,3.24,5.29,10.28a1.55,1.55,0,0,1-.76,2.14L147.59,125a18.66,18.66,0,0,1-8.27,1.58l-12.07-.46a2.53,2.53,0,0,1-2.44-2.53v-4.81A9.7,9.7,0,0,1,128.56,111.07Z"/><path class="cls-6" d="M128.63,111.08,142,100.7a2.61,2.61,0,0,1,2-.51l19.73,3.24L169,113.66a1.55,1.55,0,0,1-.75,2.12l-20.69,9.12a18.76,18.76,0,0,1-8.23,1.57l-12-.46a2.52,2.52,0,0,1-2.43-2.52v-4.78A9.65,9.65,0,0,1,128.63,111.08Z"/><path class="cls-7" d="M128.7,111.08,142,100.76a2.56,2.56,0,0,1,2-.51l19.64,3.22,5.24,10.18a1.55,1.55,0,0,1-.75,2.12l-20.59,9.06a18.56,18.56,0,0,1-8.19,1.57L127.4,126a2.51,2.51,0,0,1-2.42-2.51v-4.76A9.61,9.61,0,0,1,128.7,111.08Z"/><path class="cls-8" d="M128.77,111.09,142,100.81a2.57,2.57,0,0,1,2-.5l19.54,3.2,5.22,10.13a1.54,1.54,0,0,1-.75,2.11l-20.48,9a18.58,18.58,0,0,1-8.15,1.56l-11.9-.45a2.51,2.51,0,0,1-2.41-2.5v-4.74A9.55,9.55,0,0,1,128.77,111.09Z"/><path class="cls-9" d="M128.83,111.1,142,100.87a2.56,2.56,0,0,1,2-.5l19.45,3.18,5.19,10.08a1.53,1.53,0,0,1-.74,2.1l-20.39,9a18.51,18.51,0,0,1-8.11,1.55l-11.84-.45a2.49,2.49,0,0,1-2.39-2.48v-4.72A9.5,9.5,0,0,1,128.83,111.1Z"/><path class="cls-10" d="M128.9,111.1,142,100.92a2.57,2.57,0,0,1,1.95-.49l19.35,3.17,5.17,10a1.52,1.52,0,0,1-.74,2.08l-20.28,8.94a18.36,18.36,0,0,1-8.07,1.54l-11.78-.45a2.47,2.47,0,0,1-2.38-2.47v-4.69A9.46,9.46,0,0,1,128.9,111.1Z"/><path class="cls-11" d="M129,111.11,142,101a2.52,2.52,0,0,1,1.95-.49l19.25,3.15,5.14,10a1.51,1.51,0,0,1-.74,2.07l-20.18,8.9a18.29,18.29,0,0,1-8,1.53l-11.72-.44a2.47,2.47,0,0,1-2.37-2.47v-4.66A9.41,9.41,0,0,1,129,111.11Z"/><path class="cls-12" d="M129,111.11,142,101a2.43,2.43,0,0,1,1.93-.49l19.15,3.13,5.12,9.93a1.52,1.52,0,0,1-.73,2.07l-20.08,8.84a18.17,18.17,0,0,1-8,1.53l-11.66-.44a2.45,2.45,0,0,1-2.36-2.45v-4.64A9.38,9.38,0,0,1,129,111.11Z"/><path class="cls-13" d="M129.1,111.12l12.93-10a2.45,2.45,0,0,1,1.92-.48L163,103.73l5.09,9.87a1.51,1.51,0,0,1-.73,2.06l-20,8.8a18.1,18.1,0,0,1-7.95,1.52l-11.6-.44a2.45,2.45,0,0,1-2.35-2.44v-4.62A9.32,9.32,0,0,1,129.1,111.12Z"/><path class="cls-14" d="M129.17,111.12l12.86-10a2.47,2.47,0,0,1,1.91-.49l19,3.11L168,113.6a1.48,1.48,0,0,1-.73,2l-19.87,8.76a18.09,18.09,0,0,1-7.91,1.51l-11.55-.44a2.42,2.42,0,0,1-2.33-2.42v-4.6A9.26,9.26,0,0,1,129.17,111.12Z"/><path class="cls-15" d="M129.24,111.13,142,101.21a2.45,2.45,0,0,1,1.9-.49l18.87,3.09,5,9.78a1.48,1.48,0,0,1-.72,2l-19.78,8.72a17.85,17.85,0,0,1-7.87,1.5L128,125.4a2.42,2.42,0,0,1-2.33-2.41v-4.57A9.22,9.22,0,0,1,129.24,111.13Z"/><path class="cls-16" d="M129.31,111.13,142,101.26a2.49,2.49,0,0,1,1.9-.48l18.77,3.07,5,9.73a1.49,1.49,0,0,1-.72,2l-19.68,8.66a17.66,17.66,0,0,1-7.82,1.5l-11.43-.43a2.4,2.4,0,0,1-2.31-2.4v-4.55A9.17,9.17,0,0,1,129.31,111.13Z"/><path class="cls-17" d="M129.37,111.14,142,101.32a2.39,2.39,0,0,1,1.88-.48l18.67,3.06,5,9.67a1.47,1.47,0,0,1-.72,2l-19.57,8.62a17.67,17.67,0,0,1-7.79,1.49l-11.37-.43a2.38,2.38,0,0,1-2.29-2.39v-4.52A9.12,9.12,0,0,1,129.37,111.14Z"/><path class="cls-18" d="M129.44,111.14l12.6-9.77a2.41,2.41,0,0,1,1.87-.47l18.58,3,5,9.63a1.46,1.46,0,0,1-.71,2l-19.48,8.58a17.58,17.58,0,0,1-7.74,1.48l-11.31-.43a2.38,2.38,0,0,1-2.29-2.37v-4.51A9.1,9.1,0,0,1,129.44,111.14Z"/><path class="cls-19" d="M129.51,111.15,142,101.43a2.39,2.39,0,0,1,1.86-.47l18.48,3,4.93,9.58a1.44,1.44,0,0,1-.7,2l-19.37,8.54a17.59,17.59,0,0,1-7.71,1.47l-11.25-.43a2.36,2.36,0,0,1-2.27-2.36v-4.48A9,9,0,0,1,129.51,111.15Z"/><path class="cls-20" d="M129.58,111.15,142,101.49a2.38,2.38,0,0,1,1.85-.47l18.39,3,4.9,9.52a1.43,1.43,0,0,1-.7,2L147.21,124a17.26,17.26,0,0,1-7.66,1.47l-11.19-.43a2.34,2.34,0,0,1-2.27-2.35v-4.45A9,9,0,0,1,129.58,111.15Z"/><path class="cls-21" d="M129.64,111.16l12.4-9.62a2.45,2.45,0,0,1,1.85-.47l18.28,3,4.88,9.48a1.44,1.44,0,0,1-.69,2L147.19,124a17.26,17.26,0,0,1-7.63,1.46L128.43,125a2.34,2.34,0,0,1-2.25-2.34v-4.43A9,9,0,0,1,129.64,111.16Z"/><path class="cls-22" d="M129.71,111.16,142,101.6a2.42,2.42,0,0,1,1.84-.47l18.19,3,4.85,9.43a1.43,1.43,0,0,1-.69,2l-19.07,8.4a17.32,17.32,0,0,1-7.58,1.45l-11.08-.42a2.33,2.33,0,0,1-2.23-2.33v-4.4A8.93,8.93,0,0,1,129.71,111.16Z"/><path class="cls-23" d="M129.78,111.17l12.27-9.51a2.33,2.33,0,0,1,1.82-.47l18.09,3,4.83,9.38a1.41,1.41,0,0,1-.69,2l-19,8.36a17.32,17.32,0,0,1-7.55,1.44l-11-.42a2.31,2.31,0,0,1-2.23-2.31v-4.39A8.86,8.86,0,0,1,129.78,111.17Z"/><path class="cls-24" d="M129.85,111.17l12.2-9.46a2.35,2.35,0,0,1,1.81-.46l18,3,4.8,9.32a1.4,1.4,0,0,1-.68,1.94l-18.87,8.31a17.1,17.1,0,0,1-7.5,1.44l-11-.42a2.3,2.3,0,0,1-2.21-2.3v-4.36A8.82,8.82,0,0,1,129.85,111.17Z"/><path class="cls-25" d="M129.91,111.18l12.14-9.41a2.31,2.31,0,0,1,1.81-.46l17.89,2.93,4.78,9.28a1.41,1.41,0,0,1-.68,1.93l-18.76,8.26a17,17,0,0,1-7.47,1.43l-10.89-.42a2.28,2.28,0,0,1-2.21-2.28V118.1A8.75,8.75,0,0,1,129.91,111.18Z"/><path class="cls-26" d="M130,111.19l12.07-9.37a2.32,2.32,0,0,1,1.8-.45l17.8,2.91,4.75,9.23a1.4,1.4,0,0,1-.68,1.92l-18.66,8.22a16.88,16.88,0,0,1-7.42,1.42l-10.84-.41a2.28,2.28,0,0,1-2.19-2.28v-4.31A8.68,8.68,0,0,1,130,111.19Z"/><path class="cls-27" d="M130.05,111.19l12-9.31a2.3,2.3,0,0,1,1.79-.45l17.7,2.9,4.73,9.17a1.39,1.39,0,0,1-.67,1.91L147,123.59a16.91,16.91,0,0,1-7.39,1.41l-10.78-.41a2.28,2.28,0,0,1-2.18-2.26V118A8.66,8.66,0,0,1,130.05,111.19Z"/><path class="cls-28" d="M130.12,111.2l11.94-9.26a2.25,2.25,0,0,1,1.77-.45l17.61,2.88,4.7,9.12a1.38,1.38,0,0,1-.67,1.9L147,123.52a16.7,16.7,0,0,1-7.34,1.41L129,124.52a2.25,2.25,0,0,1-2.17-2.25V118A8.59,8.59,0,0,1,130.12,111.2Z"/><path class="cls-29" d="M130.18,111.2,142.06,102a2.28,2.28,0,0,1,1.76-.45l17.52,2.87,4.67,9.08a1.36,1.36,0,0,1-.67,1.88L147,123.46a16.7,16.7,0,0,1-7.31,1.4L129,124.45a2.23,2.23,0,0,1-2.15-2.24V118A8.56,8.56,0,0,1,130.18,111.2Z"/><path class="cls-30" d="M130.25,111.21l11.81-9.16a2.27,2.27,0,0,1,1.76-.45l17.41,2.85,4.65,9a1.37,1.37,0,0,1-.66,1.88l-18.26,8a16.47,16.47,0,0,1-7.26,1.39l-10.6-.4a2.24,2.24,0,0,1-2.15-2.23v-4.22A8.52,8.52,0,0,1,130.25,111.21Z"/><path class="cls-31" d="M130.32,111.21l11.74-9.11a2.29,2.29,0,0,1,1.75-.44l17.32,2.84,4.62,9a1.36,1.36,0,0,1-.66,1.87l-18.16,8a16.43,16.43,0,0,1-7.22,1.38l-10.54-.4A2.22,2.22,0,0,1,127,122.1v-4.19A8.49,8.49,0,0,1,130.32,111.21Z"/><path class="cls-32" d="M130.39,111.22l11.67-9.06a2.27,2.27,0,0,1,1.74-.44L161,104.54l4.6,8.92a1.35,1.35,0,0,1-.66,1.86l-18.05,8a16.26,16.26,0,0,1-7.18,1.38l-10.49-.4a2.21,2.21,0,0,1-2.12-2.2v-4.18A8.41,8.41,0,0,1,130.39,111.22Z"/><path class="cls-33" d="M130.45,111.22l11.62-9a2.22,2.22,0,0,1,1.72-.44l17.13,2.8,4.57,8.88a1.35,1.35,0,0,1-.65,1.84l-18,7.91a16.19,16.19,0,0,1-7.14,1.37l-10.42-.4a2.19,2.19,0,0,1-2.11-2.19v-4.15A8.4,8.4,0,0,1,130.45,111.22Z"/><path class="cls-34" d="M130.52,111.23l11.55-9a2.23,2.23,0,0,1,1.71-.43l17,2.78,4.55,8.83a1.35,1.35,0,0,1-.65,1.84l-17.85,7.86a16,16,0,0,1-7.1,1.35l-10.37-.39a2.17,2.17,0,0,1-2.1-2.17v-4.13A8.35,8.35,0,0,1,130.52,111.23Z"/><path class="cls-35" d="M130.59,111.23l11.48-8.9a2.18,2.18,0,0,1,1.71-.43l16.93,2.77,4.52,8.77a1.34,1.34,0,0,1-.65,1.83l-17.75,7.82a15.85,15.85,0,0,1-7.06,1.34l-10.31-.38a2.17,2.17,0,0,1-2.08-2.17v-4.1A8.28,8.28,0,0,1,130.59,111.23Z"/><path class="cls-36" d="M130.66,111.24l11.41-8.85a2.21,2.21,0,0,1,1.7-.44l16.83,2.76,4.5,8.73a1.32,1.32,0,0,1-.64,1.81L146.81,123a15.71,15.71,0,0,1-7,1.34L129.54,124a2.16,2.16,0,0,1-2.07-2.15v-4.08A8.21,8.21,0,0,1,130.66,111.24Z"/><path class="cls-37" d="M130.72,111.24l11.35-8.8a2.18,2.18,0,0,1,1.69-.43l16.74,2.74,4.47,8.68a1.32,1.32,0,0,1-.64,1.8L146.78,123a15.64,15.64,0,0,1-7,1.33l-10.19-.38a2.14,2.14,0,0,1-2.06-2.14v-4.06A8.19,8.19,0,0,1,130.72,111.24Z"/><path class="cls-38" d="M130.79,111.25l11.28-8.75a2.17,2.17,0,0,1,1.68-.43l16.64,2.73,4.45,8.62a1.32,1.32,0,0,1-.64,1.8l-17.44,7.68a15.79,15.79,0,0,1-6.94,1.32l-10.13-.38a2.12,2.12,0,0,1-2-2.13v-4A8.13,8.13,0,0,1,130.79,111.25Z"/><path class="cls-39" d="M130.86,111.25l11.22-8.7a2.16,2.16,0,0,1,1.67-.42l16.54,2.71,4.42,8.57a1.31,1.31,0,0,1-.63,1.79l-17.35,7.64a15.72,15.72,0,0,1-6.9,1.31l-10.07-.38a2.11,2.11,0,0,1-2-2.11v-4A8.11,8.11,0,0,1,130.86,111.25Z"/><path class="cls-40" d="M130.92,111.26l11.16-8.65a2.15,2.15,0,0,1,1.66-.42l16.44,2.69,4.4,8.53a1.29,1.29,0,0,1-.63,1.77l-17.24,7.6a15.57,15.57,0,0,1-6.86,1.3l-10-.37a2.11,2.11,0,0,1-2-2.11v-4A8,8,0,0,1,130.92,111.26Z"/><path class="cls-41" d="M131,111.26l11.09-8.59a2.09,2.09,0,0,1,1.65-.42l16.35,2.67,4.37,8.48a1.29,1.29,0,0,1-.63,1.76l-17.14,7.55a15.34,15.34,0,0,1-6.82,1.3l-10-.37a2.09,2.09,0,0,1-2-2.09v-4A8,8,0,0,1,131,111.26Z"/><path class="cls-42" d="M131.06,111.27l11-8.55a2.1,2.1,0,0,1,1.64-.41L160,105l4.34,8.42a1.28,1.28,0,0,1-.62,1.75l-17,7.51a15.36,15.36,0,0,1-6.78,1.29l-9.9-.37a2.08,2.08,0,0,1-2-2.08v-3.94A8,8,0,0,1,131.06,111.27Z"/><path class="cls-43" d="M131.13,111.28l11-8.5a2.14,2.14,0,0,1,1.63-.42L159.87,105l4.31,8.37a1.27,1.27,0,0,1-.61,1.75l-16.94,7.46a15.29,15.29,0,0,1-6.74,1.28l-9.83-.37a2.06,2.06,0,0,1-2-2.06v-3.92A7.89,7.89,0,0,1,131.13,111.28Z"/><path class="cls-44" d="M131.19,111.28l10.9-8.45a2.13,2.13,0,0,1,1.62-.41l16.06,2.63,4.28,8.33a1.25,1.25,0,0,1-.61,1.73l-16.83,7.42a15.28,15.28,0,0,1-6.7,1.27l-9.78-.37a2.05,2.05,0,0,1-2-2.05v-3.89A7.88,7.88,0,0,1,131.19,111.28Z"/><path class="cls-45" d="M131.26,111.29l10.83-8.4a2.1,2.1,0,0,1,1.61-.41l16,2.62,4.26,8.27a1.25,1.25,0,0,1-.61,1.72l-16.73,7.37a14.94,14.94,0,0,1-6.66,1.27l-9.72-.36a2,2,0,0,1-2-2v-3.87A7.79,7.79,0,0,1,131.26,111.29Z"/><path class="cls-46" d="M131.33,111.29,142.09,103a2.08,2.08,0,0,1,1.6-.41l15.87,2.6,4.23,8.22a1.24,1.24,0,0,1-.6,1.71l-16.64,7.33a14.88,14.88,0,0,1-6.61,1.26l-9.66-.36a2,2,0,0,1-2-2v-3.84A7.76,7.76,0,0,1,131.33,111.29Z"/><path class="cls-47" d="M131.4,111.3l10.69-8.3a2.06,2.06,0,0,1,1.59-.4l15.77,2.58,4.21,8.18a1.24,1.24,0,0,1-.6,1.7l-16.53,7.28a14.88,14.88,0,0,1-6.58,1.25l-9.6-.36a2,2,0,0,1-1.94-2v-3.83A7.69,7.69,0,0,1,131.4,111.3Z"/><path class="cls-48" d="M131.46,111.3l10.63-8.24a2,2,0,0,1,1.58-.4l15.68,2.56,4.18,8.13a1.23,1.23,0,0,1-.6,1.69l-16.43,7.24a14.8,14.8,0,0,1-6.53,1.24l-9.54-.36a2,2,0,0,1-1.93-2v-3.8A7.67,7.67,0,0,1,131.46,111.3Z"/><path class="cls-49" d="M131.53,111.31l10.57-8.19a2,2,0,0,1,1.57-.4l15.57,2.55,4.16,8.07a1.23,1.23,0,0,1-.59,1.68l-16.33,7.19a14.67,14.67,0,0,1-6.5,1.24l-9.48-.35a2,2,0,0,1-1.92-2v-3.77A7.61,7.61,0,0,1,131.53,111.31Z"/><path class="cls-50" d="M131.6,111.31l10.5-8.14a2,2,0,0,1,1.56-.39l15.48,2.53,4.13,8a1.21,1.21,0,0,1-.59,1.67l-16.23,7.15a14.45,14.45,0,0,1-6.45,1.23l-9.43-.35a2,2,0,0,1-1.9-2V117.3A7.59,7.59,0,0,1,131.6,111.31Z"/><path class="cls-51" d="M131.67,111.32l10.43-8.09a2,2,0,0,1,1.55-.4L159,105.35l4.11,8a1.2,1.2,0,0,1-.59,1.65l-16.12,7.11a14.45,14.45,0,0,1-6.42,1.22l-9.36-.35a2,2,0,0,1-1.9-2v-3.73A7.51,7.51,0,0,1,131.67,111.32Z"/><path class="cls-52" d="M131.73,111.32l10.37-8a2,2,0,0,1,1.54-.39l15.29,2.51,4.08,7.92a1.2,1.2,0,0,1-.58,1.65l-16,7.06a14.36,14.36,0,0,1-6.37,1.21l-9.31-.35a2,2,0,0,1-1.88-2v-3.71A7.5,7.5,0,0,1,131.73,111.32Z"/><path class="cls-53" d="M131.8,111.33l10.3-8a2,2,0,0,1,1.53-.39l15.2,2.49,4,7.87a1.19,1.19,0,0,1-.58,1.64l-15.92,7a14.37,14.37,0,0,1-6.34,1.21l-9.25-.35a1.93,1.93,0,0,1-1.86-1.94V117.2A7.43,7.43,0,0,1,131.8,111.33Z"/><path class="cls-54" d="M131.87,111.33l10.23-7.93a2,2,0,0,1,1.53-.39l15.09,2.47,4,7.82a1.19,1.19,0,0,1-.58,1.63l-15.82,7a14.32,14.32,0,0,1-6.29,1.2l-9.19-.34a1.94,1.94,0,0,1-1.86-1.93v-3.66A7.41,7.41,0,0,1,131.87,111.33Z"/><path class="cls-55" d="M131.94,111.34l10.17-7.89a1.94,1.94,0,0,1,1.51-.38l15,2.45,4,7.78a1.17,1.17,0,0,1-.57,1.61l-15.72,6.93a14.18,14.18,0,0,1-6.26,1.19l-9.13-.34a1.92,1.92,0,0,1-1.84-1.92v-3.63A7.34,7.34,0,0,1,131.94,111.34Z"/></g><path class="cls-60" d="M164.73,110.93c.34.66.05,3.32-.63,3.62l-17.3,7.62a15.64,15.64,0,0,1-6.88,1.31l-10-.38a2.11,2.11,0,0,1-2-2.1v-4C127.84,114.5,164.73,110.93,164.73,110.93Z"/><path class="cls-61" d="M131,108.77l11.19-8.67a2.15,2.15,0,0,1,1.66-.43l16.5,2.7,4.41,8.56a1.3,1.3,0,0,1-.63,1.78l-17.3,7.62a15.64,15.64,0,0,1-6.88,1.31l-10-.38a2.11,2.11,0,0,1-2-2.11v-4A8.09,8.09,0,0,1,131,108.77Z"/><path class="cls-62" d="M153.18,114.12c3.77-2.16,3.77-5.7,0-7.86a15.15,15.15,0,0,0-13.66,0c-3.75,2.16-3.75,5.7,0,7.86A15.15,15.15,0,0,0,153.18,114.12Z"/><path class="cls-63" d="M159.06,103l-15.22-2.49a2,2,0,0,0-1.53.39l-10.32,8a7.46,7.46,0,0,0-2.89,5.89v3.69a1.93,1.93,0,0,0,.69,1.47L159.08,103Z"/><path class="cls-55" d="M142.05,111.41l.28-3.34a.72.72,0,0,1,.78-.65.7.7,0,0,1,.64.77l-.14,1.72,7.58-.37a.73.73,0,0,1,.74.68.7.7,0,0,1-.67.74Z"/><g class="cls-3"><path class="cls-4" d="M98,69.36c-1.37.77-1.37,2,0,2.84l38.84,22.29a5.52,5.52,0,0,0,5,0L161.88,83c1.37-.78,1.37-2.06,0-2.85l-38.7-22.22a5.6,5.6,0,0,0-5,0Z"/><path class="cls-64" d="M98.26,69.33l17.51-9.92s.88-.49.9-.49l.9-.5.77-.41a5.63,5.63,0,0,1,4.92.08l38.36,22c1.37.8,1.37,2.12,0,2.91L144.17,93l-.88.5h0s-.89.49-.89.49l-.75.41a5.57,5.57,0,0,1-4.91-.08L98.25,72.23C96.87,71.43,96.88,70.11,98.26,69.33Z"/><path class="cls-65" d="M98.54,69.3l17.37-9.84s.86-.48.89-.48.9-.48.9-.47l.77-.39a5.67,5.67,0,0,1,4.86.14l38,21.82c1.39.8,1.38,2.17,0,3L144,93s-.86.49-.89.49h0s-.87.47-.88.47l-.74.38a5.64,5.64,0,0,1-4.86-.14L98.52,72.26C97.13,71.45,97.14,70.09,98.54,69.3Z"/><path class="cls-66" d="M98.81,69.27l17.24-9.76s.84-.47.89-.47.89-.46.89-.45l.76-.37a5.77,5.77,0,0,1,4.82.21l37.66,21.62a1.61,1.61,0,0,1,0,3L143.9,92.9s-.84.48-.88.48h0s-.87.45-.88.44l-.73.36A5.71,5.71,0,0,1,136.6,94L98.8,72.29A1.61,1.61,0,0,1,98.81,69.27Z"/><path class="cls-67" d="M99.08,69.25l17.11-9.69s.82-.46.88-.46.88-.43.89-.43l.75-.34a5.86,5.86,0,0,1,4.77.27L160.8,80a1.65,1.65,0,0,1,0,3.08l-17,9.76s-.82.46-.87.46h0c-.06,0-.87.43-.88.42l-.72.34a5.83,5.83,0,0,1-4.76-.26L99.07,72.32A1.64,1.64,0,0,1,99.08,69.25Z"/><path class="cls-68" d="M99.36,69.22l17-9.61s.8-.45.87-.45.88-.41.89-.41l.75-.31c1.15-.65,3.57-.33,4.71.33l37,21.23a1.68,1.68,0,0,1,0,3.13l-16.9,9.68s-.8.44-.87.44h0c-.07,0-.87.42-.88.41l-.72.31c-1.14.66-3.56.34-4.7-.32L99.34,72.35A1.68,1.68,0,0,1,99.36,69.22Z"/><path class="cls-69" d="M99.63,69.19l16.83-9.53a8,8,0,0,1,.88-.44c.08,0,.87-.39.88-.38l.74-.3c1.1-.62,3.57-.23,4.66.4l36.64,21a1.72,1.72,0,0,1,0,3.19l-16.76,9.6a8.84,8.84,0,0,1-.87.43h0c-.08,0-.85.39-.86.39l-.72.28c-1.1.63-3.56.25-4.66-.38L99.62,72.38A1.71,1.71,0,0,1,99.63,69.19Z"/><path class="cls-70" d="M99.9,69.16l16.7-9.45a7.09,7.09,0,0,1,.87-.42c.09,0,.87-.38.88-.37l.73-.27c1.06-.6,3.56-.15,4.62.46L160,79.94a1.75,1.75,0,0,1,0,3.25l-16.63,9.52a6.28,6.28,0,0,1-.86.42h0a8.18,8.18,0,0,0-.86.37l-.71.26c-1.06.6-3.55.16-4.61-.45L99.89,72.4A1.75,1.75,0,0,1,99.9,69.16Z"/><path class="cls-71" d="M100.18,69.13l16.56-9.37a6.32,6.32,0,0,1,.86-.41c.11,0,.86-.36.88-.35l.73-.24c1-.58,3.55-.06,4.56.52l36,20.63a1.79,1.79,0,0,1,0,3.31l-16.49,9.44a6.32,6.32,0,0,1-.86.41h0c-.11,0-.85.35-.86.34l-.7.24c-1,.58-3.55.07-4.56-.51L100.16,72.43A1.78,1.78,0,0,1,100.18,69.13Z"/><path class="cls-72" d="M100.45,69.11l16.43-9.3a5,5,0,0,1,.86-.4c.12,0,.85-.34.87-.33l.72-.21c1-.55,3.55,0,4.51.58l35.61,20.43a1.82,1.82,0,0,1,0,3.36l-16.36,9.37a5.68,5.68,0,0,1-.85.4h0c-.13,0-.84.33-.86.32l-.7.21c-1,.56-3.53,0-4.5-.57L100.44,72.46A1.81,1.81,0,0,1,100.45,69.11Z"/><path class="cls-73" d="M100.72,69.08,117,59.86a5,5,0,0,1,.86-.39c.14,0,.85-.32.87-.3l.71-.2c.93-.52,3.54.12,4.46.65l35.26,20.23a1.86,1.86,0,0,1,0,3.42l-16.23,9.29a4.91,4.91,0,0,1-.85.39h0a8.8,8.8,0,0,0-.85.3l-.69.19c-.92.53-3.53-.11-4.45-.64L100.71,72.49A1.85,1.85,0,0,1,100.72,69.08Z"/><path class="cls-74" d="M101,69.05l16.15-9.14a3.91,3.91,0,0,1,.86-.38c.14,0,.84-.3.86-.28l.71-.17c.88-.5,3.53.2,4.41.71l34.91,20a1.9,1.9,0,0,1,0,3.48l-16.09,9.21a4.62,4.62,0,0,1-.85.38h0a8.47,8.47,0,0,0-.85.28l-.68.16c-.88.51-3.53-.19-4.41-.7L101,72.52A1.89,1.89,0,0,1,101,69.05Z"/><path class="cls-75" d="M101.27,69l16-9.07a4.16,4.16,0,0,1,.85-.36c.16,0,.83-.28.86-.26l.7-.14c.84-.48,3.52.29,4.36.77l34.57,19.83a1.94,1.94,0,0,1,0,3.54l-16,9.13a4.29,4.29,0,0,1-.84.36h0c-.17,0-.82.28-.85.26l-.67.15c-.84.47-3.52-.29-4.36-.77L101.26,72.55A1.93,1.93,0,0,1,101.27,69Z"/><path class="cls-76" d="M101.54,69l15.89-9a3.86,3.86,0,0,1,.84-.35c.18,0,.83-.26.86-.24l.69-.12c.8-.45,3.52.38,4.31.84l34.23,19.64a2,2,0,0,1,0,3.59l-15.82,9a3.33,3.33,0,0,1-.83.35h0c-.19,0-.82.26-.85.24l-.67.12c-.79.45-3.51-.37-4.3-.83L101.53,72.58A2,2,0,0,1,101.54,69Z"/><path class="cls-77" d="M101.82,69l15.75-8.92a3.51,3.51,0,0,1,.84-.34c.18,0,.82-.24.85-.22l.69-.09c.75-.42,3.51.47,4.26.9l33.88,19.44a2,2,0,0,1,0,3.64l-15.68,9a3.29,3.29,0,0,1-.84.34h0c-.2,0-.81.24-.84.22l-.66.09c-.75.43-3.5-.45-4.25-.89l-34-19.51A2,2,0,0,1,101.82,69Z"/><path class="cls-78" d="M102.09,68.94,117.7,60.1a3.61,3.61,0,0,1,.84-.32c.2,0,.81-.23.85-.2l.68-.07c.71-.4,3.5.55,4.21,1l33.54,19.24a2,2,0,0,1,0,3.7l-15.55,8.9a3.09,3.09,0,0,1-.83.33h0a7.6,7.6,0,0,0-.84.2l-.65.07c-.71.4-3.5-.55-4.2-1L102.08,72.64A2,2,0,0,1,102.09,68.94Z"/><path class="cls-79" d="M102.36,68.91l15.48-8.76a3,3,0,0,1,.83-.31c.22,0,.81-.2.85-.18l.67,0c.67-.38,3.5.64,4.16,1l33.19,19a2.08,2.08,0,0,1,0,3.76l-15.42,8.82a2.9,2.9,0,0,1-.82.32h0a7.15,7.15,0,0,0-.83.18l-.65,0c-.66.38-3.5-.63-4.16-1L102.35,72.67A2.08,2.08,0,0,1,102.36,68.91Z"/><path class="cls-80" d="M102.64,68.89,118,60.2a2.82,2.82,0,0,1,.83-.3c.22,0,.8-.18.84-.16l.67,0c.61-.35,3.49.73,4.1,1.09l32.85,18.84a2.13,2.13,0,0,1,0,3.82L142,92.22a3.29,3.29,0,0,1-.83.3h0c-.24,0-.79.17-.82.15l-.65,0c-.61.36-3.48-.72-4.1-1.07l-33-18.92A2.11,2.11,0,0,1,102.64,68.89Z"/><path class="cls-81" d="M102.91,68.86l15.21-8.61a2.67,2.67,0,0,1,.82-.29c.24,0,.8-.16.84-.14h.66c.57-.33,3.48.82,4.06,1.15L157,79.62a2.17,2.17,0,0,1,0,3.88l-15.15,8.67a2.78,2.78,0,0,1-.82.29h0c-.25,0-.79.15-.82.13h-.64c-.57.33-3.48-.81-4-1.14L102.9,72.73A2.15,2.15,0,0,1,102.91,68.86Z"/><path class="cls-82" d="M103.18,68.83l15.08-8.53a2.52,2.52,0,0,1,.82-.28c.25,0,.78-.14.83-.11l.65,0c.53-.3,3.48.9,4,1.21l32.16,18.44a2.2,2.2,0,0,1,0,3.93l-15,8.6a2.58,2.58,0,0,1-.81.27h0c-.27,0-.78.14-.82.12l-.63,0c-.53.3-3.47-.9-4-1.2L103.17,72.76A2.2,2.2,0,0,1,103.18,68.83Z"/><path class="cls-83" d="M103.46,68.8l14.93-8.45a2.56,2.56,0,0,1,.82-.27c.27,0,.78-.12.83-.09l.65,0c.48-.27,3.47,1,4,1.28l31.82,18.24a2.24,2.24,0,0,1,0,4l-14.87,8.52a2.62,2.62,0,0,1-.81.26h0c-.29,0-.78.12-.82.1l-.62-.06c-.49.28-3.47-1-4-1.26L103.44,72.79A2.24,2.24,0,0,1,103.46,68.8Z"/><path class="cls-84" d="M103.73,68.78l14.8-8.38a2.23,2.23,0,0,1,.81-.26c.28,0,.78-.1.83-.07l.64.08c.44-.25,3.46,1.08,3.9,1.33l31.48,18.05a2.28,2.28,0,0,1,0,4L141.44,92a2.41,2.41,0,0,1-.81.25h0c-.29,0-.77.1-.81.07l-.61-.07c-.45.25-3.47-1.08-3.9-1.33l-31.6-18.12A2.27,2.27,0,0,1,103.73,68.78Z"/><path class="cls-85" d="M104,68.75l14.67-8.31a2.38,2.38,0,0,1,.81-.24c.29,0,.77-.08.82-.05l.63.11c.4-.23,3.46,1.17,3.86,1.39l31.13,17.86a2.31,2.31,0,0,1,0,4.1L141.3,92a2.3,2.3,0,0,1-.8.24h0c-.31,0-.76.08-.81.05l-.61-.1c-.39.23-3.45-1.16-3.85-1.39L104,72.85A2.31,2.31,0,0,1,104,68.75Z"/><path class="cls-86" d="M104.28,68.72l14.53-8.23a2.33,2.33,0,0,1,.8-.22,6.9,6.9,0,0,1,.82,0l.63.12c.35-.2,3.45,1.26,3.8,1.46l30.78,17.66a2.35,2.35,0,0,1,0,4.16l-14.47,8.28a2.35,2.35,0,0,1-.8.23h0c-.33,0-.76.06-.81,0l-.6-.12c-.35.2-3.45-1.26-3.8-1.46l-30.9-17.72A2.35,2.35,0,0,1,104.28,68.72Z"/><path class="cls-87" d="M104.55,68.69,119,60.54a2.24,2.24,0,0,1,.79-.21,5.75,5.75,0,0,1,.82,0l.62.15c.31-.17,3.44,1.35,3.75,1.52l30.44,17.46a2.38,2.38,0,0,1,0,4.21L141,91.87a2.05,2.05,0,0,1-.79.22h0c-.34,0-.76,0-.81,0l-.59-.15c-.31.18-3.44-1.34-3.75-1.52L104.53,72.91A2.39,2.39,0,0,1,104.55,68.69Z"/><path class="cls-88" d="M104.82,68.67l14.26-8.08a2.31,2.31,0,0,1,.8-.2,4.74,4.74,0,0,1,.81,0l.61.18c.27-.15,3.44,1.43,3.7,1.58l30.1,17.26a2.42,2.42,0,0,1,0,4.27l-14.2,8.13a2,2,0,0,1-.79.2h0a5.83,5.83,0,0,1-.8,0l-.59-.17c-.26.15-3.43-1.43-3.69-1.58L104.81,72.94A2.42,2.42,0,0,1,104.82,68.67Z"/><path class="cls-89" d="M105.1,68.64l14.12-8a2,2,0,0,1,.79-.19,4,4,0,0,1,.81,0l.61.21a23.44,23.44,0,0,1,3.65,1.64l29.75,17.06a2.47,2.47,0,0,1,0,4.33l-14.06,8A2,2,0,0,1,140,92h0a4.72,4.72,0,0,1-.8,0l-.58-.19A23.42,23.42,0,0,1,135,90.09L105.08,73A2.46,2.46,0,0,1,105.1,68.64Z"/><path class="cls-90" d="M105.37,68.61l14-7.92a2,2,0,0,1,.79-.18,4.15,4.15,0,0,1,.8.05l.6.23a29.33,29.33,0,0,1,3.6,1.71l29.41,16.86a2.51,2.51,0,0,1,0,4.39l-13.93,8a2,2,0,0,1-.78.18h0a3.73,3.73,0,0,1-.79-.05l-.58-.22a27.94,27.94,0,0,1-3.6-1.71L105.35,73A2.5,2.5,0,0,1,105.37,68.61Z"/><path class="cls-91" d="M105.64,68.58l13.86-7.84a1.92,1.92,0,0,1,.78-.17,2.88,2.88,0,0,1,.8.08l.59.25a39.09,39.09,0,0,1,3.55,1.77l29.07,16.66a2.55,2.55,0,0,1,0,4.45l-13.8,7.89a1.9,1.9,0,0,1-.77.17h0a3.09,3.09,0,0,1-.79-.07l-.57-.25a36.65,36.65,0,0,1-3.55-1.77L105.63,73A2.54,2.54,0,0,1,105.64,68.58Z"/><path class="cls-92" d="M105.92,68.56l13.71-7.77a2,2,0,0,1,.78-.16,2.52,2.52,0,0,1,.8.1l.58.28c.09,0,3.42,1.78,3.5,1.83L154,79.3a2.58,2.58,0,0,1,0,4.5l-13.66,7.82a1.76,1.76,0,0,1-.78.16h0a2.64,2.64,0,0,1-.78-.09l-.56-.27c-.09,0-3.41-1.78-3.5-1.83L105.9,73.06A2.57,2.57,0,0,1,105.92,68.56Z"/><path class="cls-93" d="M106.19,68.53l13.58-7.69a2,2,0,0,1,.78-.14,2.28,2.28,0,0,1,.79.11l.58.3s3.4,1.88,3.45,1.9l28.37,16.26a2.63,2.63,0,0,1,0,4.56l-13.53,7.74a1.72,1.72,0,0,1-.77.15h0a2,2,0,0,1-.78-.12l-.56-.29s-3.4-1.87-3.44-1.89L106.17,73.09A2.62,2.62,0,0,1,106.19,68.53Z"/><path class="cls-55" d="M139.31,91.66a1.75,1.75,0,0,1-.78-.14l-32.08-18.4a2.66,2.66,0,0,1,0-4.62l13.45-7.61a1.8,1.8,0,0,1,.77-.13,2.11,2.11,0,0,1,.79.13l32,18.36a2.65,2.65,0,0,1,0,4.61l-13.39,7.67a1.91,1.91,0,0,1-.76.13Z"/></g><path class="cls-94" d="M139.9,93a2.55,2.55,0,0,1-2.3,0L100.78,71.32a1.14,1.14,0,0,1-.55-1v-.67s.41.39.57.3l21.35-12.33a2.52,2.52,0,0,1,2.3,0l36.8,21.69c.23.13.51-.73.58-.56v.89a1.11,1.11,0,0,1-.56,1Z"/><path class="cls-57" d="M139.9,91.94a2.52,2.52,0,0,1-2.3,0L100.8,70.25a.71.71,0,0,1,0-1.34l21.35-12.32a2.52,2.52,0,0,1,2.3,0l36.8,21.69a.71.71,0,0,1,0,1.34Z"/><path class="cls-95" d="M153.26,79.25c1.3-.75,1.3-2,0-2.73a5.23,5.23,0,0,0-4.72,0,1.45,1.45,0,0,0,0,2.73A5.23,5.23,0,0,0,153.26,79.25Z"/><ellipse class="cls-96" cx="146.56" cy="75.96" rx="3.34" ry="1.93"/><path class="cls-55" d="M145,75.4c1.3-.75,1.3-2,0-2.72a5.23,5.23,0,0,0-4.72,0c-1.29.74-1.29,2,0,2.72A5.23,5.23,0,0,0,145,75.4Z"/><polygon class="cls-97" points="139.79 79.71 146.56 83.62 143.17 85.57 136.41 81.66 139.79 79.71"/><polygon class="cls-97" points="131.12 74.76 137.89 78.67 134.51 80.63 127.74 76.72 131.12 74.76"/><polygon class="cls-97" points="122.46 69.82 129.23 73.73 125.84 75.68 119.08 71.77 122.46 69.82"/><polygon class="cls-97" points="123.35 60.62 138.98 69.8 137.26 70.79 121.64 61.61 123.35 60.62"/><polygon class="cls-97" points="113.8 64.87 120.56 68.78 117.18 70.73 110.41 66.83 113.8 64.87"/><g class="cls-98"><polygon class="cls-4" points="72.74 118 36.54 138.35 91.49 170.07 127.69 149.73 72.74 118"/><polygon class="cls-5" points="72.74 118 37.22 137.97 92.17 169.69 127.69 149.73 72.74 118"/><polygon class="cls-6" points="72.74 118 37.9 137.59 92.85 169.31 127.69 149.73 72.74 118"/><polygon class="cls-7" points="72.74 118 38.58 137.2 93.53 168.93 127.69 149.73 72.74 118"/><polygon class="cls-8" points="72.74 118 39.26 136.82 94.21 168.55 127.69 149.73 72.74 118"/><polygon class="cls-9" points="72.74 118 39.94 136.44 94.89 168.17 127.69 149.73 72.74 118"/><polygon class="cls-10" points="72.74 118 40.62 136.06 95.57 167.78 127.69 149.73 72.74 118"/><polygon class="cls-11" points="72.74 118 41.3 135.68 96.25 167.4 127.69 149.73 72.74 118"/><polygon class="cls-12" points="72.74 118 41.98 135.3 96.93 167.02 127.69 149.73 72.74 118"/><polygon class="cls-13" points="72.74 118 42.66 134.92 97.61 166.64 127.69 149.73 72.74 118"/><polygon class="cls-14" points="72.74 118 43.35 134.53 98.29 166.26 127.69 149.73 72.74 118"/><polygon class="cls-15" points="72.74 118 44.03 134.15 98.97 165.88 127.69 149.73 72.74 118"/><polygon class="cls-16" points="72.74 118 44.71 133.77 99.66 165.5 127.69 149.73 72.74 118"/><polygon class="cls-17" points="72.74 118 45.39 133.39 100.34 165.12 127.69 149.73 72.74 118"/><polygon class="cls-18" points="72.74 118 46.07 133.01 101.02 164.73 127.69 149.73 72.74 118"/><polygon class="cls-19" points="72.74 118 46.75 132.63 101.7 164.35 127.69 149.73 72.74 118"/><polygon class="cls-20" points="72.74 118 47.43 132.25 102.38 163.97 127.69 149.73 72.74 118"/><polygon class="cls-21" points="72.74 118 48.11 131.87 103.06 163.59 127.69 149.73 72.74 118"/><polygon class="cls-22" points="72.74 118 48.79 131.48 103.74 163.21 127.69 149.73 72.74 118"/><polygon class="cls-23" points="72.74 118 49.47 131.1 104.42 162.83 127.69 149.73 72.74 118"/><polygon class="cls-24" points="72.74 118 50.15 130.72 105.1 162.45 127.69 149.73 72.74 118"/><polygon class="cls-25" points="72.74 118 50.83 130.34 105.78 162.06 127.69 149.73 72.74 118"/><polygon class="cls-26" points="72.74 118 51.52 129.96 106.46 161.68 127.69 149.73 72.74 118"/><polygon class="cls-27" points="72.74 118 52.2 129.58 107.14 161.3 127.69 149.73 72.74 118"/><polygon class="cls-28" points="72.74 118 52.88 129.2 107.82 160.92 127.69 149.73 72.74 118"/><polygon class="cls-29" points="72.74 118 53.56 128.81 108.5 160.54 127.69 149.73 72.74 118"/><polygon class="cls-30" points="72.74 118 54.24 128.43 109.19 160.16 127.69 149.73 72.74 118"/><polygon class="cls-31" points="72.74 118 54.92 128.05 109.87 159.78 127.69 149.73 72.74 118"/><polygon class="cls-32" points="72.74 118 55.6 127.67 110.55 159.4 127.69 149.73 72.74 118"/><polygon class="cls-33" points="72.74 118 56.28 127.29 111.23 159.01 127.69 149.73 72.74 118"/><polygon class="cls-34" points="72.74 118 56.96 126.91 111.91 158.63 127.69 149.73 72.74 118"/><polygon class="cls-35" points="72.74 118 57.64 126.53 112.59 158.25 127.69 149.73 72.74 118"/><polygon class="cls-36" points="72.74 118 58.32 126.14 113.27 157.87 127.69 149.73 72.74 118"/><polygon class="cls-37" points="72.74 118 59 125.76 113.95 157.49 127.69 149.73 72.74 118"/><polygon class="cls-38" points="72.74 118 59.68 125.38 114.63 157.11 127.69 149.73 72.74 118"/><polygon class="cls-39" points="72.74 118 60.37 125 115.31 156.73 127.69 149.73 72.74 118"/><polygon class="cls-40" points="72.74 118 61.05 124.62 115.99 156.34 127.69 149.73 72.74 118"/><polygon class="cls-41" points="72.74 118 61.73 124.24 116.67 155.96 127.69 149.73 72.74 118"/><polygon class="cls-42" points="72.74 118 62.41 123.86 117.36 155.58 127.69 149.73 72.74 118"/><polygon class="cls-43" points="72.74 118 63.09 123.48 118.04 155.2 127.69 149.73 72.74 118"/><polygon class="cls-44" points="72.74 118 63.77 123.09 118.72 154.82 127.69 149.73 72.74 118"/><polygon class="cls-45" points="72.74 118 64.45 122.71 119.4 154.44 127.69 149.73 72.74 118"/><polygon class="cls-46" points="72.74 118 65.13 122.33 120.08 154.06 127.69 149.73 72.74 118"/><polygon class="cls-47" points="72.74 118 65.81 121.95 120.76 153.68 127.69 149.73 72.74 118"/><polygon class="cls-48" points="72.74 118 66.49 121.57 121.44 153.29 127.69 149.73 72.74 118"/><polygon class="cls-49" points="72.74 118 67.17 121.19 122.12 152.91 127.69 149.73 72.74 118"/><polygon class="cls-50" points="72.74 118 67.85 120.81 122.8 152.53 127.69 149.73 72.74 118"/><polygon class="cls-51" points="72.74 118 68.53 120.42 123.48 152.15 127.69 149.73 72.74 118"/><polygon class="cls-52" points="72.74 118 69.21 120.04 124.16 151.77 127.69 149.73 72.74 118"/><polygon class="cls-53" points="72.74 118 69.89 119.66 124.84 151.39 127.69 149.73 72.74 118"/><polygon class="cls-54" points="72.74 118 70.58 119.28 125.52 151 127.69 149.73 72.74 118"/><polygon class="cls-55" points="72.74 118 71.26 118.9 126.2 150.62 127.69 149.73 72.74 118"/></g><path class="cls-99" d="M69.64,1.85l-.55,2.72c-.67.47-.72,3.45-.72,4.26l.86,103.29c0,5,2.62,8.61,6.93,11.1L113.09,145c.61.35,1.35,2,2,1.73l3.51.73a9.19,9.19,0,0,0,6.14-8.67V36c0-5-3.53-11.09-7.84-13.58L81.9,2.23C77.54-.29,73.78-1,69.64,1.85Z"/><path class="cls-62" d="M75.26,2.33C71-.16,67.42,1.88,67.42,6.86V111.6c0,5,3.53,11.1,7.84,13.59l38,21.93c4.31,2.49,7.84.46,7.84-4.52V37.85c0-5-3.53-11.09-7.84-13.58Z"/><path class="cls-97" d="M100.21,23.05a1,1,0,0,1-.46-.12L87.86,16.07a.91.91,0,0,1-.33-1.24.9.9,0,0,1,1.24-.33l11.89,6.86A.91.91,0,0,1,101,22.6.9.9,0,0,1,100.21,23.05Z"/><path class="cls-97" d="M73.82,4.9,83,10.21a1,1,0,0,1,.52.9V12.8a5.35,5.35,0,0,0,2.67,4.63L102,26.53a1.84,1.84,0,0,0,2.75-1.59V23.7a.56.56,0,0,1,.84-.48l6.7,3.86a13.16,13.16,0,0,1,6.57,11.4V142.39a3.07,3.07,0,0,1-4.6,2.66L76.06,123a13.41,13.41,0,0,1-6.7-11.6L69.21,7.56A3.08,3.08,0,0,1,73.82,4.9Z"/><path class="cls-100" d="M93.29,42.94c-5.27-3-9.59-.56-9.59,5.53S88,62,93.29,65.07s9.58.55,9.58-5.54S98.56,46,93.29,42.94Z"/><path class="cls-101" d="M93.29,96.44c-5.27-3-9.59-.55-9.59,5.53s4.32,13.56,9.59,16.6,9.58.55,9.58-5.53S98.56,99.48,93.29,96.44Z"/><path class="cls-102" d="M95.52,71.75c-4-2.33-7.34-.43-7.34,4.24a16.29,16.29,0,0,0,7.34,12.72c4,2.33,7.35.43,7.35-4.24A16.3,16.3,0,0,0,95.52,71.75Z"/><path class="cls-102" d="M90.36,69.93c-4.91-2.83-8.92-.51-8.92,5.15s4,12.62,8.92,15.45,8.92.51,8.92-5.15S95.26,72.77,90.36,69.93Z"/><ellipse class="cls-103" cx="86.54" cy="80.23" rx="7.82" ry="13.55" transform="translate(-28.52 54.02) rotate(-30)"/><ellipse class="cls-104" cx="85.19" cy="80.23" rx="7.82" ry="13.55" transform="translate(-28.7 53.35) rotate(-30)"/><path class="cls-62" d="M87.5,81.75,87,81.49a1.58,1.58,0,0,0,.44-1.1V78.81a2.53,2.53,0,0,0-1.3-2.22l-.71-.42v-1.5L84.19,74v1.46l-.52-.31V73.69l-1.28-.77v1.42l-.81-.48V75.4l.8.46v2.92l-.81-.47v1.48l.81.46v2.88l-.81-.47v1.53l.81.47v1.15l1.28.73V85.4l.52.3v1.09l1.28.75v-1.1l.9.52A1.6,1.6,0,0,0,88,87a1.6,1.6,0,0,0,.81-1.41V84A2.55,2.55,0,0,0,87.5,81.75Zm-3.83-5.14,1.88,1.1a1.25,1.25,0,0,1,.65,1.1v1.58a.34.34,0,0,1-.17.29.33.33,0,0,1-.34,0l-2-1.16Zm3.85,8.94a.34.34,0,0,1-.17.3.36.36,0,0,1-.34,0l-3.34-2V81.08l3.2,1.79a1.25,1.25,0,0,1,.65,1.1Z"/><polygon class="cls-62" points="96.22 60.91 96.22 58.2 93.45 56.6 93.45 54.14 94.36 53.62 94.36 51.97 93.45 52.51 93.45 48.44 91.09 47.09 91.09 53.9 90.35 54.32 90.36 55.9 91.09 55.5 91.09 57.95 96.22 60.91"/><polygon class="cls-105" points="93.27 99.51 93.27 99.48 90.68 107.05 92.7 110.11 92.71 110.11 95.9 110.11 93.27 99.51"/><polygon class="cls-62" points="90.68 107.89 92.47 110.69 95.9 110.69 93.29 115.53 90.68 107.89"/><polygon class="cls-106" points="93.27 99.51 92.91 106.36 95.9 110.11 93.27 99.51"/><polygon class="cls-107" points="90.68 107.05 92.91 106.36 92.71 110.11 90.68 107.05"/><polygon class="cls-62" points="92.91 106.36 92.71 110.11 95.9 110.11 92.91 106.36"/><polygon class="cls-108" points="90.68 107.89 93.29 115.53 92.47 110.69 90.68 107.89"/><path class="cls-109" d="M104.54,119.89h0a7.15,7.15,0,0,1,8.85-1.46l12.49,7a6.37,6.37,0,0,1,2.93,5V147a5.15,5.15,0,0,1-5.48,5.14l-.55,0a2.83,2.83,0,0,1-1.24-.36l-14.63-8.26a6.39,6.39,0,0,1-2.93-5V121.34A2.16,2.16,0,0,1,104.54,119.89Z"/><path class="cls-110" d="M104,122.13c0-1.85,1.32-2.61,2.93-1.7l14.27,8.07a6.38,6.38,0,0,1,2.92,5v16.28c0,1.85-1.31,2.62-2.92,1.71l-14.27-8.07a6.39,6.39,0,0,1-2.93-5Z"/><path class="cls-55" d="M114,129.91c-1.68-1-3.05-.2-3.05,1.71A7.08,7.08,0,0,0,114,137c1.68,1,3.06.28,3.06-1.71A6.86,6.86,0,0,0,114,129.91Z"/><path class="cls-55" d="M123.07,126.35V119c0-7.16-1.58-11.7-4.7-13.5a4.75,4.75,0,0,0-4.85-.13c-1.2.69-3.2,2.6-3.2,7.67v7.26h0a.65.65,0,0,0,.37.51,2,2,0,0,0,1.86,0,.66.66,0,0,0,.38-.51h0V113c0-2.67.69-4.67,1.85-5.34a2.15,2.15,0,0,1,2.17.13c2.16,1.25,3.35,5.21,3.35,11.17v7.39a.66.66,0,0,0,.39.57,2.12,2.12,0,0,0,1.9,0A.67.67,0,0,0,123.07,126.35Z"/><polygon class="cls-55" points="112.2 131.8 112.2 140.3 115.89 142.43 115.89 133.92 112.2 131.8"/><path class="cls-95" d="M57.58,151.75v6.12a1.83,1.83,0,0,0,1.82,1.83H60A7,7,0,0,0,63,159l6-2.38a1.23,1.23,0,0,0,.63-1.47h0a2.9,2.9,0,0,0-2.75-2H62.19l-.68-1.21Z"/><path class="cls-55" d="M69.68,155.08a1.27,1.27,0,0,1-.6.67l-6,2.37a7,7,0,0,1-3.06.7H59.4A1.83,1.83,0,0,1,57.58,157v.87a1.83,1.83,0,0,0,1.82,1.83H60A7,7,0,0,0,63,159l6-2.38a1.23,1.23,0,0,0,.63-1.47A.15.15,0,0,1,69.68,155.08Z"/><path class="cls-111" d="M59.74,155.11h-.06a2.48,2.48,0,0,1-2.46-2.54l.36-15.74.06-9.25a6.75,6.75,0,0,0-.36-2.19l-.38-1.09a6.37,6.37,0,0,1-.34-2.33l.17-3.73c0-1.4,1.57-3.77,3-3.79s3.94,1.36,4,2.75l-.16,19.64L62,151.75C62,153.12,61.66,155.11,59.74,155.11Z"/><path class="cls-95" d="M65.46,156.13v6.12a1.83,1.83,0,0,0,1.83,1.83h.58a7,7,0,0,0,3-.7L77,161a1.21,1.21,0,0,0,.63-1.47h0a2.88,2.88,0,0,0-2.75-2H70.08l-.24-1.21Z"/><path class="cls-55" d="M77.56,160.34a1.17,1.17,0,0,1-.6.66l-6,2.38a7,7,0,0,1-3,.7h-.58a1.83,1.83,0,0,1-1.83-1.83v.88A1.83,1.83,0,0,0,67.29,165h.58a6.86,6.86,0,0,0,3-.71l6-2.37a1.21,1.21,0,0,0,.63-1.47Z"/><path class="cls-112" d="M67.63,159.42H67.5a3,3,0,0,1-2.11-2.64L65,140.64l-2.7-12.36L61,127.56a6.5,6.5,0,0,1-3.29-5.34l-.11-2.12c0-1.39,8.57-2.61,10-2.65a2.53,2.53,0,0,1,2.6,2.43l.73,21.67-1,15.47A2.28,2.28,0,0,1,67.63,159.42Z"/><path class="cls-55" d="M65.8,95.45l1.53.88a8.37,8.37,0,0,1,4.19,7.25l.37,3.22c.13,1.33-.42,1.8-.75,3.09l-.21,4.28.15,10.56c-10.29-.43-14.48-4.24-14.48-4.24V100.77A6.13,6.13,0,0,1,65.8,95.45Z"/><path class="cls-113" d="M62,85.18h8.37a0,0,0,0,1,0,0v4.73a4.93,4.93,0,0,1-4.93,4.93h-.86A2.58,2.58,0,0,1,62,92.26V85.18A0,0,0,0,1,62,85.18Z"/><path class="cls-113" d="M63.57,90.26H66a.54.54,0,0,1,.54.54v4.89A1.57,1.57,0,0,1,65,97.26H64.6A1.57,1.57,0,0,1,63,95.69V90.8A.54.54,0,0,1,63.57,90.26Z"/><path class="cls-95" d="M70.67,84.4a2.89,2.89,0,0,0-1.48-.94,8.8,8.8,0,0,0-5.22.33c-2.59.83-4.35,2.53-4.23,5.45.08,1.88,1.2,5.61,3.61,5.6a2.45,2.45,0,0,0,2.06-1.45,4.78,4.78,0,0,0,.31-2.6,2.85,2.85,0,0,1,0-1.05.85.85,0,0,1,.73-.67c.45,0,.73.48,1,.87s.64.82,1.06.65.43-.73.27-1.14a2.79,2.79,0,0,1-.4-1.22,1.47,1.47,0,0,1,.93-1.1C70.69,86.41,71.3,85.28,70.67,84.4Z"/><path class="cls-95" d="M64.27,86.34a3.88,3.88,0,1,1-3.88-3.88A3.88,3.88,0,0,1,64.27,86.34Z"/><path class="cls-114" d="M61.71,82.7a3.87,3.87,0,0,1-3.52,6.83,3.87,3.87,0,1,0,3.52-6.83Z"/><path class="cls-113" d="M72,112.28A4.91,4.91,0,0,1,67.09,108l-.68-5.24a1.68,1.68,0,0,1,3.33-.43l.67,5.24a1.5,1.5,0,0,0,1.07,1.26,1.49,1.49,0,0,0,1.59-.45l4.86-5.52a1.68,1.68,0,1,1,2.51,2.22l-4.85,5.52A4.81,4.81,0,0,1,72,112.28Z"/><path class="cls-55" d="M69.89,102.12a1.87,1.87,0,0,0-2.28-1.58,1.93,1.93,0,0,0-1.41,2.15l.5,3.88a1.86,1.86,0,0,0,2.09,1.61h0a1.86,1.86,0,0,0,1.61-2.09Z"/><path class="cls-113" d="M77.13,103.79l.8-.91a1.68,1.68,0,1,1,2.51,2.22l-1,1.1Z"/><path class="cls-113" d="M82,103.48a2,2,0,1,1-2-2A2,2,0,0,1,82,103.48Z"/><path class="cls-113" d="M78.18,100.56h3.89a.35.35,0,0,1,.35.35v.19a.35.35,0,0,1-.35.35H78.19a.36.36,0,0,1-.36-.36v-.19A.35.35,0,0,1,78.18,100.56Z" transform="translate(-48.28 89.41) rotate(-46.41)"/><g class="cls-3"><path class="cls-4" d="M9.55,118.73a1,1,0,0,1,0-1.79l17-9.8a3.45,3.45,0,0,1,3.1,0l17,9.8a1,1,0,0,1,0,1.79l-17,9.81a3.45,3.45,0,0,1-3.1,0Z"/><path class="cls-115" d="M9.71,118.73a.94.94,0,0,1,0-1.78l16.83-9.72a3.41,3.41,0,0,1,3.08,0L46.45,117a.94.94,0,0,1,0,1.78l-16.83,9.72a3.47,3.47,0,0,1-3.08,0Z"/><path class="cls-116" d="M9.86,118.72a.93.93,0,0,1,0-1.76l16.69-9.64a3.41,3.41,0,0,1,3.05,0L46.29,117a.93.93,0,0,1,0,1.76L29.6,128.36a3.41,3.41,0,0,1-3.05,0Z"/><path class="cls-117" d="M10,118.71A.92.92,0,0,1,10,117l16.55-9.56a3.35,3.35,0,0,1,3,0L46.14,117a.92.92,0,0,1,0,1.74l-16.55,9.55a3.29,3.29,0,0,1-3,0Z"/><path class="cls-118" d="M10.18,118.7a.91.91,0,0,1,0-1.73l16.4-9.47a3.37,3.37,0,0,1,3,0L46,117a.91.91,0,0,1,0,1.73l-16.4,9.47a3.3,3.3,0,0,1-3,0Z"/><path class="cls-119" d="M10.33,118.7a.91.91,0,0,1,0-1.72l16.26-9.39a3.3,3.3,0,0,1,3,0L45.82,117a.91.91,0,0,1,0,1.72l-16.26,9.38a3.24,3.24,0,0,1-3,0Z"/><path class="cls-120" d="M10.49,118.69a.9.9,0,0,1,0-1.7l16.12-9.31a3.3,3.3,0,0,1,2.94,0L45.67,117a.9.9,0,0,1,0,1.7L29.55,128a3.24,3.24,0,0,1-2.94,0Z"/><path class="cls-121" d="M10.65,118.68a.88.88,0,0,1,0-1.68l16-9.23a3.26,3.26,0,0,1,2.92,0l16,9.23a.89.89,0,0,1,0,1.68l-16,9.22a3.2,3.2,0,0,1-2.92,0Z"/><path class="cls-122" d="M10.8,118.67a.88.88,0,0,1,0-1.67l15.83-9.14a3.22,3.22,0,0,1,2.9,0L45.36,117a.88.88,0,0,1,0,1.67l-15.83,9.14a3.22,3.22,0,0,1-2.9,0Z"/><path class="cls-123" d="M11,118.67A.88.88,0,0,1,11,117L26.65,108a3.2,3.2,0,0,1,2.86,0L45.2,117a.88.88,0,0,1,0,1.66l-15.69,9a3.14,3.14,0,0,1-2.86,0Z"/><path class="cls-124" d="M11.11,118.66a.87.87,0,0,1,0-1.64l15.55-9a3.16,3.16,0,0,1,2.84,0L45,117a.87.87,0,0,1,0,1.64l-15.54,9a3.16,3.16,0,0,1-2.84,0Z"/><path class="cls-125" d="M11.27,118.65a.86.86,0,0,1,0-1.62l15.4-8.9a3.18,3.18,0,0,1,2.82,0l15.4,8.9a.86.86,0,0,1,0,1.62l-15.4,8.89a3.11,3.11,0,0,1-2.82,0Z"/><path class="cls-126" d="M11.43,118.64a.85.85,0,0,1,0-1.61l15.25-8.8a3.05,3.05,0,0,1,2.79,0L44.73,117a.85.85,0,0,1,0,1.61l-15.26,8.81a3.05,3.05,0,0,1-2.79,0Z"/><path class="cls-127" d="M11.58,118.64a.85.85,0,0,1,0-1.6l15.12-8.72a3.05,3.05,0,0,1,2.76,0L44.57,117a.85.85,0,0,1,0,1.6l-15.11,8.72a3.05,3.05,0,0,1-2.76,0Z"/><path class="cls-128" d="M11.74,118.63a.84.84,0,0,1,0-1.58l15-8.64a3,3,0,0,1,2.74,0l15,8.64a.84.84,0,0,1,0,1.58l-15,8.64a3,3,0,0,1-2.74,0Z"/><path class="cls-129" d="M11.9,118.62a.82.82,0,0,1,0-1.56l14.82-8.56a3,3,0,0,1,2.71,0l14.83,8.56a.82.82,0,0,1,0,1.56l-14.83,8.56a3,3,0,0,1-2.71,0Z"/><path class="cls-130" d="M12.05,118.61a.82.82,0,0,1,0-1.55l14.69-8.47a3,3,0,0,1,2.68,0l14.68,8.47a.82.82,0,0,1,0,1.55l-14.68,8.48a3,3,0,0,1-2.68,0Z"/><path class="cls-131" d="M12.21,118.61a.82.82,0,0,1,0-1.54l14.54-8.39a2.9,2.9,0,0,1,2.66,0L44,117.07a.82.82,0,0,1,0,1.54L29.41,127a3,3,0,0,1-2.66,0Z"/><path class="cls-132" d="M12.36,118.6a.8.8,0,0,1,0-1.52l14.4-8.31a2.9,2.9,0,0,1,2.63,0l14.4,8.31a.8.8,0,0,1,0,1.52l-14.4,8.31a2.9,2.9,0,0,1-2.63,0Z"/><path class="cls-133" d="M12.52,118.59a.79.79,0,0,1,0-1.5l14.26-8.23a2.84,2.84,0,0,1,2.6,0l14.26,8.23a.79.79,0,0,1,0,1.5l-14.26,8.23a2.9,2.9,0,0,1-2.6,0Z"/><path class="cls-134" d="M12.68,118.58a.79.79,0,0,1,0-1.49L26.79,109a2.86,2.86,0,0,1,2.58,0l14.11,8.14a.79.79,0,0,1,0,1.49l-14.11,8.15a2.86,2.86,0,0,1-2.58,0Z"/><path class="cls-135" d="M12.83,118.58a.78.78,0,0,1,0-1.48l14-8.06a2.8,2.8,0,0,1,2.55,0l14,8.06a.78.78,0,0,1,0,1.48l-14,8.06a2.8,2.8,0,0,1-2.55,0Z"/><path class="cls-136" d="M13,118.57a.77.77,0,0,1,0-1.46l13.83-8a2.8,2.8,0,0,1,2.52,0l13.83,8a.77.77,0,0,1,0,1.46l-13.83,8a2.8,2.8,0,0,1-2.52,0Z"/><path class="cls-137" d="M13.15,118.56a.76.76,0,0,1,0-1.44l13.68-7.9a2.75,2.75,0,0,1,2.5,0L43,117.12a.76.76,0,0,1,0,1.44l-13.68,7.9a2.75,2.75,0,0,1-2.5,0Z"/><path class="cls-138" d="M13.3,118.55a.76.76,0,0,1,0-1.43l13.54-7.81a2.77,2.77,0,0,1,2.48,0l13.53,7.81a.76.76,0,0,1,0,1.43l-13.53,7.82a2.77,2.77,0,0,1-2.48,0Z"/><path class="cls-139" d="M13.46,118.55a.75.75,0,0,1,0-1.42l13.39-7.73a2.71,2.71,0,0,1,2.45,0l13.4,7.73a.75.75,0,0,1,0,1.42l-13.4,7.73a2.71,2.71,0,0,1-2.45,0Z"/><path class="cls-140" d="M13.62,118.54a.74.74,0,0,1,0-1.4l13.25-7.65a2.65,2.65,0,0,1,2.42,0l13.25,7.65a.74.74,0,0,1,0,1.4l-13.25,7.65a2.71,2.71,0,0,1-2.42,0Z"/><path class="cls-141" d="M13.77,118.53a.73.73,0,0,1,0-1.38l13.11-7.57a2.67,2.67,0,0,1,2.4,0l13.11,7.57a.73.73,0,0,1,0,1.38L29.28,126.1a2.67,2.67,0,0,1-2.4,0Z"/><path class="cls-142" d="M13.93,118.52a.73.73,0,0,1,0-1.37l13-7.48a2.61,2.61,0,0,1,2.37,0l13,7.48a.73.73,0,0,1,0,1.37l-13,7.49a2.67,2.67,0,0,1-2.37,0Z"/><path class="cls-143" d="M14.08,118.52a.72.72,0,0,1,0-1.36l12.83-7.4a2.61,2.61,0,0,1,2.34,0l12.82,7.4a.72.72,0,0,1,0,1.36l-12.82,7.4a2.61,2.61,0,0,1-2.34,0Z"/><path class="cls-144" d="M14.24,118.51a.71.71,0,0,1,0-1.34l12.68-7.32a2.56,2.56,0,0,1,2.32,0l12.68,7.32a.71.71,0,0,1,0,1.34l-12.68,7.32a2.56,2.56,0,0,1-2.32,0Z"/><path class="cls-145" d="M14.4,118.5a.7.7,0,0,1,0-1.32l12.53-7.24a2.56,2.56,0,0,1,2.29,0l12.54,7.24a.7.7,0,0,1,0,1.32l-12.54,7.24a2.56,2.56,0,0,1-2.29,0Z"/><path class="cls-146" d="M14.55,118.49a.69.69,0,0,1,0-1.3L27,110a2.5,2.5,0,0,1,2.26,0l12.39,7.16c.63.35.63.94,0,1.3l-12.39,7.16a2.5,2.5,0,0,1-2.26,0Z"/><path class="cls-147" d="M14.71,118.49a.69.69,0,0,1,0-1.3L27,110.12a2.46,2.46,0,0,1,2.24,0l12.25,7.07a.69.69,0,0,1,0,1.3L29.2,125.56a2.52,2.52,0,0,1-2.24,0Z"/><path class="cls-148" d="M14.87,118.48a.68.68,0,0,1,0-1.28l12.1-7a2.46,2.46,0,0,1,2.21,0l12.11,7a.68.68,0,0,1,0,1.28l-12.11,7a2.46,2.46,0,0,1-2.21,0Z"/><path class="cls-149" d="M15,118.47a.67.67,0,0,1,0-1.26l12-6.91a2.39,2.39,0,0,1,2.18,0l12,6.91c.61.34.61.91,0,1.26l-12,6.91a2.46,2.46,0,0,1-2.18,0Z"/><path class="cls-150" d="M15.18,118.46a.65.65,0,0,1,0-1.24L27,110.39a2.41,2.41,0,0,1,2.16,0L41,117.22a.66.66,0,0,1,0,1.24l-11.82,6.83a2.41,2.41,0,0,1-2.16,0Z"/><path class="cls-151" d="M15.34,118.45a.65.65,0,0,1,0-1.23L27,110.48a2.37,2.37,0,0,1,2.14,0l11.67,6.74a.65.65,0,0,1,0,1.23L29.15,125.2a2.37,2.37,0,0,1-2.14,0Z"/><path class="cls-152" d="M15.49,118.45a.65.65,0,0,1,0-1.22L27,110.57a2.37,2.37,0,0,1,2.11,0l11.54,6.66a.65.65,0,0,1,0,1.22l-11.54,6.66a2.37,2.37,0,0,1-2.11,0Z"/><path class="cls-153" d="M15.65,118.44a.63.63,0,0,1,0-1.2L27,110.66a2.31,2.31,0,0,1,2.08,0l11.39,6.58a.63.63,0,0,1,0,1.2L29.12,125A2.31,2.31,0,0,1,27,125Z"/><path class="cls-154" d="M15.8,118.43a.62.62,0,0,1,0-1.18l11.25-6.5a2.33,2.33,0,0,1,2.06,0l11.24,6.5a.62.62,0,0,1,0,1.18l-11.24,6.5a2.33,2.33,0,0,1-2.06,0Z"/><path class="cls-55" d="M16,118.42c-.56-.32-.56-.84,0-1.17l11.1-6.41a2.27,2.27,0,0,1,2,0l11.11,6.41a.62.62,0,0,1,0,1.17l-11.11,6.42a2.27,2.27,0,0,1-2,0Z"/></g><polygon class="cls-155" points="28.29 92.85 13.93 101.14 28.29 109.44 28.29 92.85 28.29 92.85"/><polygon class="cls-156" points="28.29 92.85 28.29 109.44 42.66 101.14 28.29 92.85"/><polygon class="cls-156" points="13.93 101.14 13.93 117.74 28.29 126.03 28.29 109.44 13.93 101.14"/><polygon class="cls-155" points="28.29 126.03 42.66 117.74 42.66 101.14 28.29 109.44 28.29 126.03"/><polygon class="cls-157" points="13.93 101.14 8.65 94.65 23.02 86.35 28.29 92.85 13.93 101.14"/><polygon class="cls-157" points="42.66 101.14 47.94 94.65 33.57 86.35 28.29 92.85 42.66 101.14"/><polygon class="cls-158" points="42.66 108.61 42.66 101.92 28.29 109.45 32.11 114.75 42.66 108.61"/><polygon class="cls-157" points="28.3 109.46 32.68 113.6 47.04 105.28 42.66 101.14 28.3 109.46"/><polygon class="cls-158" points="13.93 102.03 13.93 108.68 24.48 114.75 28.29 109.47 28.29 109.45 13.94 102.02 13.93 102.03"/><polygon class="cls-157" points="28.29 109.46 23.92 113.6 9.56 105.28 13.94 101.14 28.29 109.46"/><path class="cls-159" d="M19.56,97.23a15,15,0,0,1,17.25,0c4.74,3.65,4.74,9.62,0,13.26a15,15,0,0,1-17.25,0C14.82,106.85,14.82,100.88,19.56,97.23Z"/><path class="cls-160" d="M38.57,92.64H37.5a7.27,7.27,0,0,0-2-1.59,16.29,16.29,0,0,0-14.71,0,7.27,7.27,0,0,0-2,1.59h-1v2.24h0c-.19,1.68.8,3.39,3,4.66a16.35,16.35,0,0,0,14.71,0c2.2-1.27,3.19-3,3-4.66h0Z"/><path class="cls-161" d="M22.94,90.12c-.36.12-.7.25-1,.39v9.56a10.49,10.49,0,0,0,1,.4Z"/><path class="cls-161" d="M19.86,91.7v7.18a9.13,9.13,0,0,0,1,.66l.06,0V91l-.06,0A7.12,7.12,0,0,0,19.86,91.7Z"/><path class="cls-161" d="M25,89.59c-.35.06-.69.14-1,.22v11c.34.08.68.16,1,.22Z"/><path class="cls-161" d="M36.27,91.52v7.55a7,7,0,0,0,1-.9V92.42A7.61,7.61,0,0,0,36.27,91.52Z"/><path class="cls-161" d="M38.32,96.56a3.72,3.72,0,0,0,.22-1.68h0V92.64h-.25Z"/><path class="cls-161" d="M33.19,90c-.33-.11-.67-.21-1-.29v11.08c.35-.08.69-.18,1-.28Z"/><path class="cls-161" d="M18.83,97.91V92.64h-1v2.24h0A4,4,0,0,0,18.83,97.91Z"/><path class="cls-161" d="M35.24,90.89c-.32-.17-.67-.33-1-.48v9.76a8.66,8.66,0,0,0,1-.48Z"/><path class="cls-161" d="M27,89.33l-1,.1v11.72c.34,0,.68.08,1,.1Z"/><path class="cls-161" d="M29.09,101.26V89.32c-.34,0-.68,0-1,0v12C28.41,101.29,28.75,101.28,29.09,101.26Z"/><path class="cls-161" d="M31.14,89.54c-.34-.06-.68-.1-1-.14v11.78c.34,0,.68-.08,1-.14Z"/><ellipse class="cls-162" cx="28.19" cy="92.31" rx="10.4" ry="6"/><path class="cls-161" d="M34.81,88.3a14.72,14.72,0,0,0-13.25,0c-3.64,2.1-3.64,5.54,0,7.65a14.72,14.72,0,0,0,13.25,0C38.45,93.84,38.45,90.4,34.81,88.3Z"/><path class="cls-162" d="M34,88.75a13,13,0,0,0-11.61,0c-3.2,1.81-3.2,4.77,0,6.58a13.09,13.09,0,0,0,11.61,0C37.19,93.52,37.19,90.56,34,88.75Z"/><path class="cls-103" d="M29,94.35H26.07c-.66,0-1.2-.31-1.2-.7v-.36h1.71v.06H29c.46,0,.83-.21.83-.48s-.24-.31-.54-.31H27.12c-1.24,0-2.25-.59-2.25-1.31v-.18c0-.82,1.14-1.48,2.54-1.48H30.3c.66,0,1.2.31,1.2.7v.41H29.79v-.12H27.41c-.46,0-.83.22-.83.49v.18c0,.17.24.31.54.31h2.13c1.24,0,2.25.59,2.25,1.31S30.36,94.35,29,94.35Z"/><rect class="cls-103" x="27.33" y="89.1" width="1.72" height="5.87"/><path class="cls-163" d="M33.59,56.62c6.18-4.75,16.28-4.75,22.46,0s6.18,12.52,0,17.27-16.28,4.75-22.46,0S27.41,61.37,33.59,56.62Z"/><path class="cls-55" d="M59.48,50.54c0-.36-.51-.65-1.14-.65H55.92c-.4,0-1.06.43-1.16.3s-.11-.46.17-.62l1.71-1c.45-.25-2.37-.13-2.81-.39l0-2.13a1.74,1.74,0,0,0-1.6,0l-1.72,1a1.46,1.46,0,0,1-1,.11L48.75,47c-.36-.08-.59-.28-.59-.5V45.08c0-.36-.51-.65-1.14-.65H43.08c-.63,0-1.13.29-1.13.65v1.4c0,.23-.26.42-.64.51l-.7.16a1.47,1.47,0,0,1-1.08-.1l-1.71-1a1.82,1.82,0,0,0-1.61,0L36,48.4c-.44.25-3,0-2.57.21l1.73,1c.27.15.35.39.2.59s-.79-.28-1.17-.28H31.75c-.62,0-1.13.29-1.13.65v3.32c0,.36.51.65,1.14.65h1.42l0,2.73a.33.33,0,0,0,0,.14h0a.6.6,0,0,0,.33.4l2.79,1.6a1.63,1.63,0,0,0,1,.17h0a1.36,1.36,0,0,0,.59-.17l1.73-1a1.48,1.48,0,0,1,1-.12l.74.17c.36.08.59.28.59.5v1.41c0,.36.51.65,1.13.65h3.95c.62,0,1.13-.29,1.13-.65V59c0-.23.25-.43.63-.51l.67-.16a1.55,1.55,0,0,1,1.07.1l1.72,1a1.51,1.51,0,0,0,.59.16v0h0a1.76,1.76,0,0,0,1-.17l2.79-1.61a.67.67,0,0,0,.32-.38h0v-.1l0-2.8h1.4c.62,0,1.13-.29,1.13-.65Zm-8.93,2.77c-.65,2-4.27,3.14-7.52,2.42-2.46-.55-4-2.08-3.48-3.58.66-2,4.27-3.14,7.52-2.42C49.54,50.28,51,51.81,50.55,53.31Z"/><path class="cls-55" d="M57,46.77V45H54.42l-.57-.33a1.8,1.8,0,0,0-1.6,0l-.57.33H48.16v-1.3c0-.36-.51-.65-1.14-.65H43.08c-.63,0-1.13.29-1.13.65V45H38.36l-.54-.31a1.76,1.76,0,0,0-1.61,0l-.53.31H33.11v1.74a.54.54,0,0,0,.33.48l1.73,1,19.76,0,1.71-1a.59.59,0,0,0,.33-.42Z"/><path class="cls-164" d="M55.25,51.38h3.1c.62,0,1.13-.29,1.13-.66V48.45c0-.36-.51-.65-1.14-.65H55.92a1.08,1.08,0,0,1-.89-.36,4.56,4.56,0,0,0-.27-.39c-.17-.21-.11-.45.17-.61l1.71-1c.45-.26.45-.67,0-.92l-2.79-1.61a1.8,1.8,0,0,0-1.6,0l-1.72,1a1.52,1.52,0,0,1-1,.11l-.74-.17c-.36-.08-.59-.28-.59-.5V42c0-.36-.51-.65-1.14-.65H43.08c-.63,0-1.13.29-1.13.65v1.39c0,.23-.26.43-.64.51l-.7.17a1.53,1.53,0,0,1-1.08-.1l-1.71-1a1.76,1.76,0,0,0-1.61,0l-2.78,1.61a.48.48,0,0,0,0,.92l1.73,1c.27.16.35.39.2.6s-.21.29-.3.42a1.07,1.07,0,0,1-.87.34H31.75c-.62,0-1.13.29-1.13.65v2.27c0,.36.51.65,1.14.65h2.42a1.09,1.09,0,0,1,.89.36,4.73,4.73,0,0,0,.28.39c.16.21.1.45-.18.62l-1.71,1c-.44.26-.44.67,0,.93l2.79,1.6a1.8,1.8,0,0,0,1.6,0l1.73-1a1.48,1.48,0,0,1,1-.11l.74.17c.36.08.59.28.59.5v1.41c0,.36.51.65,1.13.65h3.95c.62,0,1.13-.3,1.13-.66V55.85c0-.23.25-.43.63-.51l.67-.16a1.49,1.49,0,0,1,1.07.1l1.72,1a1.74,1.74,0,0,0,1.6,0l2.79-1.6a.49.49,0,0,0,0-.93l-1.73-1c-.27-.16-.35-.39-.2-.59S55.24,51.4,55.25,51.38ZM39.55,49c.66-2,4.27-3.14,7.52-2.42,2.47.54,4,2.08,3.48,3.58-.65,2-4.27,3.14-7.52,2.42C40.57,52.05,39.06,50.51,39.55,49Z"/></g></g></g></svg>